<mxfile host="app.diagrams.net" modified="2022-12-16T02:43:53.550Z" agent="5.0 (X11)" version="20.7.2" etag="qZqyGvvqT-6IJhF8Jk1N" type="github">
  <diagram id="5_1YW8dQipnGBHENl7d-" name="go-view">
    <mxGraphModel dx="1434" dy="731" grid="1" gridSize="10" guides="1" tooltips="1" connect="1" arrows="1" fold="1" page="1" pageScale="1" pageWidth="827" pageHeight="1169" math="0" shadow="0">
      <root>
        <mxCell id="0" />
        <mxCell id="1" parent="0" />
        <mxCell id="BqEM0KlZmVFwN0colaF9-3" style="rounded=0;orthogonalLoop=1;jettySize=auto;html=1;endArrow=none;endFill=0;" edge="1" parent="1" source="BqEM0KlZmVFwN0colaF9-1" target="BqEM0KlZmVFwN0colaF9-5">
          <mxGeometry relative="1" as="geometry">
            <mxPoint x="380" y="290" as="targetPoint" />
          </mxGeometry>
        </mxCell>
        <mxCell id="BqEM0KlZmVFwN0colaF9-1" value="设置登陆有效时间" style="treeFolding=1;rounded=0;whiteSpace=wrap;html=1;movable=1;resizable=1;rotatable=1;deletable=1;editable=1;connectable=1;" vertex="1" parent="1">
          <mxGeometry x="180" y="169" width="120" height="40" as="geometry" />
        </mxCell>
        <mxCell id="BqEM0KlZmVFwN0colaF9-5" value="" style="swimlane;startSize=0;shadow=1;labelBackgroundColor=none;labelBorderColor=none;strokeWidth=0;fillColor=#DAE8FC;strokeColor=#6c8ebf;swimlaneFillColor=#999999;rounded=0;swimlaneLine=0;movable=1;resizable=1;rotatable=1;deletable=1;editable=1;connectable=1;" vertex="1" parent="1">
          <mxGeometry x="50" y="540" width="560" height="310" as="geometry">
            <mxRectangle x="60" y="540" width="50" height="40" as="alternateBounds" />
          </mxGeometry>
        </mxCell>
        <mxCell id="BqEM0KlZmVFwN0colaF9-6" value="" style="shape=image;verticalLabelPosition=bottom;labelBackgroundColor=none;verticalAlign=middle;aspect=fixed;imageAspect=0;image=data:image/png,iVBORw0KGgoAAAANSUhEUgAAAggAAADOCAYAAABb0vrjAAAgAElEQVR4nOy915bbSJqou98nQAd6EiTovXeZzGR67518yntT8l4qozJd1TXdPTXdPT3Te689F3vts/bVeY5zd9Y6b/CdCzCZSaWTVJJSKcXFt5IgIgBEAMn4EAH88d80PYxE8jo2u3NXMtWezmd/tonbsXva34vPH0AI8V6w2+3vnNdms72343hXFq68wLRluXbhL7iVgz0miUTy+fLfDrohknyafKgG/23x+jQqlWqbCpVK5Z0v9sMsCCbVx7lH32BuL/euPeD4QOzAf0AkEsnnixQEyY4ctBjsxO+92A+zIJidAcyyt0AikXxEpCBIduSgZUAKgkQikRws7yQI1x6+4NrDF5y4eJ1CrafD22xj9cJlQp9AQyiRgvAmSEGQSCRfGjsKwuDIGJF4Ak0Ps7x2dFdBeJ2N9Sdnmhw7e5m+co61M5cZbuTR9DBjSye5fOEUmh5mavUEAT3CkYkGZy9fo5qKHnijKJGCsBtSECQSyZfGrj0IL799xfzSCvXevrcUhAh/+fEmmp7g1feP0PQID57e6eQNVBc4Wopw4d5zgnqUnx+fRNOj/PWb9QNvFCVSEHZDCoJEIvnS2HOIodk/sOP3+wnCn5+eRNMjPH9wFU0Pc/vRAzQ9zZ07NxiZOsHlgWhHEH64Po2mh/m3n68ceKMokYKwG1IQJBLJl8Y7PYOQKZR3ZE9BSIxx/8QwK5ceSUE4BOzWSCfKvURiCeq1PK5gimw6Sa7ai/MDxkKQgiCRSCQfH/kWgwRND+MPhrrYrZEuNmrY7E6yvYM4A0kCmp9QqoRD9iBIJBLJZ4UUBAmabgwnbZBMZ3dtpB2eAOFkkUI8gDecIRQMEE6XcDmlIEgkEsnnhBQECZr+5oJgszsp9hihlrVEiXgkRLLUh8clBUEikUg+J6QgSND0txOEg+L3XuxSECQSieTNkYIgQdOlIOyHFASJRPKlIQVBgqZLQdgPKQgSieRL470LQmB0meDVVwTOPkFLZLatry9cpBA6+AZRsrcgqKr62eF0Ot85r8PhOPDjl0gkko/JOwlCIr3Z8Key+R0F4XW0XOXAG0GJFIR3zXsQgvDzSZX/+77Ks7sXD7zuJBLJl8c7CcL80goj45Ocv3SFeKq7l2A/QSgvXCOthxleOEqh1MNPz89w4qtH6KEw4+t3SEcinFgcp3f2DHPV7T0QEikI78phEoT/85XK//fLJhvf+6Np7FvSRRPJncvqDXQ+271BHO96LA43DncAl9OFqqr4XG+a14Hf49r2vT8Q2D2P3Ynf3X2OHC5P53NAD3c+e7yeNzyODew4nB48qorLrhLwbj+2iO7f9l3Q791xfSxkfB+K6t15nB68TtnbJPk8eOchhtGJSXLF8rbv31QQSkPLXL9ynh9+eUq8dYRWKs5XT26g6WHWLt/j9LlrXJ8qHXjD+aUgBWFvPrYg/D+vdhaE+dWZrnQzY/Ud89vdOmM5o0GbXpzoSMXy6jD5xgCpWITlyTrlwWkjj91FLB4nHo9TH5qmkTIacrsnTjrRoFYqYXfGSbrfrJ79eopyQsPpdOJ0Otv7d7B47Djz8/MdJvoyBBIl+otRPHqKXFTD7Xbjajey/kiOaspohJvDY519uAMJRgoaiVSaTGOMcjpNJOBDVVWi7XIk8w2mB8tGHoeHfKFBMlLF69SoxbVtxx2rDnXJl6qqFAaMunNqSepb8hybLKCqKmOLI13px6bGcdhVUuk06TbvLGcSyQHz/h9SHJwlcObRNrRMqUsQHj29jh5N8t0vz9D0OD9cmuHidBEtPc65oSSx8iTXp6UgfGqCsHLpFtlkmru3T5Hqm2e8kWXq2CXCb9BwHDSHSRAeLW7Kwf/7x/bdsifMSDG0eUzhHvJB+w757fj8fvx+Pw67il1VcXncxvc+Hz6fj/n5oc5nu6rSMzhGKhpEi9UIux30FsKM16OodgejyycZ6ckT71sk6NLoKcRRVZXy4DwR78512jO5gF1V0WObxxsuDJHUNfztY/P7N+/I7S4XxYFp3D4du6rSGh5Cdbg6ZVBVlf6R4U75/H4/TlXF4XBij/UQaG8n0VomHE+juuJUA3ZS2Rxro0VUVaU4MM3K9ADBZIV82M/owhCqquLxeDp4tRBTA0Z6h8uD3+/H5/NitztQVQdOu0prYp6zp08yPT3P6TPrHD9xkrhmR3VFcTp8TDZ27tWRSA4bH/0thg1BqAzOsTw/yejSPJoeZuLYOvF2mvkjJxlq9jNcTR14w/ml8KaCcPLqBdxOF+fu3KY6cYSM7qEwsEwm+PG7VROJRNeyz+fbNa3b7e4ShEgk0rU+GAx2Ldvtmw2vw+HoEoRQKNSVNhwOdy3vJSKB17rYo9Fo17LHY8iA26lyf97gz19fNspbGSTg3jyu8SPHuvJqWvsO161TSgRxuGKktCC1iI/BGaNxdXhjlIpFZkf7KBaLpCNGnp7BUTzhHOnKCJNjQ7jsdsbrUdKFAtFCPy6Hk/FmnmYpQyq0d/e+L16lN+7Fbrczc3q2U5dev5+BZpFwpkghHSbbmtisb7eXWjFGoDCEz+6gmAqgqnZ8etJofFWVhbX5zh2+05ck53FS7B3FEethqK+PVNhHorWM0xMkla0zOzRIIuBmbbSIT08SSZbwqSrVepPRcpzpRvc1oDq8zEyPdPaRqrRwqSp98/NkGn24HDEKfmPd8akykUiE+ele/JEcMZ/x/dj8El5PiGazSbM1ylSrj5Dn4H/oJZJ34eMKQijK2vUXBD+BBlHyboJgdzjxJweYy3lQVTsej4frN9cP/EJ+Ew5TD4Kqqni9PrxeHzdv3kRVVSbmpjbX2zVWWvGd87p1qukIHl9ymyC49Bohl7Pd9e+jr2Lc7fYMTTI5P0c4WScaSjOUDTBej2J3epipRyj3D+BUVSZXV3HtddzuMD2lJimnisvlYvb0HC6XMd7v1YL0lxNMT/Xhcrmoj0/ibQvRyrLRVd+cmmW6vNmz4NbibUGwMz02QMjbFiR3vEsQtvYg1IamiYezFHxuJkd6jR4Eu4PRgQZuvU7YqVKbWiVo33J+PToLEz1dZUlVWvhcLloL3YIwMjXLyZkKDruLteMnKWQKRL0qqjdNvtaPe2MbnjgFz7tfcxLJQSPjIEjQ9Ld5BsHBuQvHO8uZ8TNkvAd/Ib8Jh00QNrh27RqqXWOkunnHG60MEXDuNLygvtaD4Ccb9GwRhDrZaIRIJEIkkqB/QxAGR1FVJxNjw20BMHoQVNXO8NxRxvsKOH1hpsaGyLQf0Mv3TRHaqQF0Z0k5jc8zp2c369CtMdRbIpPJMjveZHxxlmREI1bqR3c78IWztIpR0v1z6O3teoIZFmdHSPUv4LO7mBisoqoqdm+SuclZqjsIgl210z8yjr/93cYQQ6FvkuNHxnG4fEyNtBguG+XrG59mcXoYV7s+HU4Xbmd3D0I0V8S5pQfh2GSBQKpK3O/GH0mTiRvPSaSqfVIQJJ8NUhAkaLp8SHE/DloQkkNH8W+54x2fHt89j1unlNCZmJwh7FYpDY4xNVZHtbtJJJIkEokOqWQSv0NFj6XJZDJbyDJUDpMqVogEPDhdGr3lNKqqki61H/yz7yIozghRb5B8Pt9Bf+2tgXR1gLHe/JY8Os3S5th9sVrFoaq4/SHsrgDVhNGr4NZTRN0qbi2E0+7o2kc6puPR46+VI8PiUA5vMEk6rqM63NR66zjsKlo0jd/lQnerOD1+0tkcxWKRXDZLwGUnWe4nmCgzNzeMavcxOTVPzKUSKzeZb6YYqLf/T5w+5hYnUdVNQXB4AkzNzhN1yTcaJIcXKQgSNF0Kwn4ctCAcdN1JJJIvDykIEjRdCsJ+yEiKEonkS+OjC8KZ63c4c/0OuXLtPW87wunbL1jrTR54Y3sYkXMx7I2ci0EikXxpvHdBCIajnc+BUGTb+msPX+zI791vIFnm+pGxA29oDytSEPZGCoJEIvnSeO+CkCuWuHT1OoFQhPuPHu8oCGNzS1SbAzsKwrHrjzh+/CRzw1WivSvcvnyaB08eoulhLj/6iXOn13n13VPOnTvDH3952smXH1nj5d0rhMIRHjx9wvEzV0l8Ag3vYUEKwt5IQfgwWDwZjiyOfZBtDx65Tk/Gd+BllEgOKx9kiCGWTPHzH/8FPRLbURB6B0ZI5YrbBSFe5eHZqU7ax3/6FU0PEygtcKY3ytX7jwnqYc48+pGAHmbtm38SaKcNpspcWxtFq5xgsbF9v5LfIwgu7A7X5menG7W9zu50b1n3YbA73didbkwmEyaT6Z0v9i9JEHrWX6K0P6eP/kK10sOlr/91l/Rmbt84Q6mSf/t9KRrf/vgHbLusn/vuf3WOo+/Sv2HpWm/i+cvr71Q+RVH2Oa4wN2ejB34eJJLDzEd/BmHPIYZokec3Vjtpb/zhTwT1MPHWSZZLkY4grD80BGH16x0EIbvAyZH8Ry3T58DuguCmkM9RLKSx2Z2kK01cbh/1vhreaB5d8xPO1HA5P4wc+PyB93axf06CUJ65xMWvnnBufQUhBLOXn3Lm+mMKARuR+ir3fvrvXLr9lFY5RvroL9hNJprHH2MSgkTfGmev3ePE2jjCEmRy4SR3bl1mcm4MYbazfusFl+5/R9RlwlJa58j8KS7cfoLLZkIvz3H++n3Orc8bdVq/wkDvEbIBC0JYWBvNIoSd20er1GbO8eS3/4tLt5+S0d30XfkHa+duc+fuRaMcvkEmYpvC9/zVM45efMBMXd+n/ArTZx8xOdzsyMd2bLy80Hfg50kiOcx8cm8xVKdO8IdffmamVSYQzfHk2x+5c24JTQ/vIggJvv/myqYg6GFWrzzkx+9fkgwdfHkOC/v1IGwIQq7WIF8pku9rEUhV8Cer6HoGn/vjC0KtVutaDgR2T+t0OrsEIZfLda2PxWJdy1t7KqxWa5cgJJPJrrTpdLprWVXVXY8jEol0LReLxa5lt9v9Rv+489dfUStl28dp596xCkKY+PbWNEJs70Ho6Rng4tMfEUJw/NoDhBAMXfojZqFgsXg5MVXAYjFjDxQZqYQQwsqFxTKW0jpFi8AUrFPzO1m68R2KENQu/h2LEMw9+ztWf4bFVo7XBUGI13oQLv8VmxD0XP8nJiFQwpO0tM2egHv3jiOE4OqdY9vLbMrx4ue/8+zltc53NoeXM3eeYmov67ohFoH8DC9+/gc5t/nAf2AlksPMJycIkoPhbQTBZncagpAs43Q68QQzeA9AEN6Ww96DoLo1TEr7eFQ7isXFpYcvMAmVh2cG8fj86H7jWY3XBUEVAmflGGmT4PiNp3h9fjR9Q1acHB/PGHUUKDBaDSOEyvmFEpbSOgXz5jEs3vgBr8+PX48hhMLzn//KvZe/8PDqGkKYOTpeQAg3N1dLCCGY+3b7EEPjqiEIwtvPTMrS2fa9uzuIwS4Esy1uPf2akNuySxoL31weOPBzJpEcZqQgSND0vYcYyrUe+loD5BNBtFieUqVOJhHC7tEpVesUy+XOMwnvG5fHh9fr7Vywr9+Bvw2HXRDmbv+ViNfonehdusG1+y85c3IJIQST5x5x6fYzmgmjB8JTmOPmw2/ozQdIH/2FGw++4ead2wghiPUscemrp6yfXGxve1MQhEnlxM2XXHv4LSGHaZsgBIqTXPrqKecvHEfYYpyfTCGE4NidxwghWL7ynKsPviHkMHoGggPXuPnwG6KaY7sgCDMPvn2Cub3ttxKE0D7DEEqQrxYSB37OJJLDjBQECZr+ab/F4HJ7cblchMPh/R9O24PDLgifJSYbkxNDH2TbV378H0w19nueQSKR7IYUBAma/mkLwkZPgtn8+8aUpSBIJBLJmyMFQYKmf/qCYLPLOAgSiUTyMfmkBCEUTZAplElmCwd+LF8aUhD25qAE4ff2mkgkEsm78kkJQrXZ6sRFWFk/z+zaCWbXTpApVnZMP3P8POdOrhD8BI79sCMFYW+kIEgkki+Njy4Ij58ZQZH0SIx7D7tDMW8IwuzKca7ef9aRhWqzhaaHufboCUE9TL5/lZFqlqAeJlKbYLlRPPAG9rAjBWFvPgdB0MvDXREPa1OrnRgChw3zlvNhsVgwv2WEzXxc63zW0uXOZ6s7TlzXtqX3RDLYzK8/IGthIB/c+Xpxh7ErB19PEsnv4aMLgh6J8fLbV9x98HDbZE4bgqDpYaaWjmwThL7FS5TSMVZuviDUzlMYOUp/IXXgDexhZy9BsHuC6AENm92J6vITjiVwtyMnauE4XpcUhA/F+xMEhYnp4S3LFpbGCgf+A/TOmJ0MFwM4Akm8qsLA0qjxva9CLp5gfKBOqjFFMpZgPO/B7gujqYKjUzkm5pYYn5hlemQAl0VQmD2Fwxsil8tRboxSLfeQcJoZWlhmaXGIcDrD2PQM2UyGWMiLsCeYHRtldHQLI02EECgWO4Njk/ijNTymT6CeJJLfwYEMMQRCkR1netwQhAtfPeTqg+fbBEGL93Bhus7zu0faeZI8vn3mwBvXz4G94iDEQ3onUFK22oPqcFHu78Wjx/F4YyQDUhA+FO9LEMwOP325zVf+nKlBwtaD/wF6J8x2FpaX0awWRsZHUISgMr1Gq5Ig0z/C1NQU0/OrzE5NMTU1xWR/BrsvyuryEuuLoywuzDM7O8vk+CweLc7x02dp9ZSYnp4mqaXwu4M4zAqNoV7qg3VGVjbFamy8jLAniNs8eMwKo9UoQlFploxInI2RKWJeG55ED86DrieJ5HfyST2D8CY8e/GSmWIELVbk7//xK2OT0ww3Swd+XIedt4mkWKyVyfe12usiByYI5XK5a9nv9+96oTscji5ByGQyXetfD8C0NdSyxWLpEoR4PN6V9vXQy3uFWg6FQl3Lr4d8drlcXcsbguBwON6ardsJl0fxbRGC6ZXZXcpvZnJ5jbW1NdyKQCge1tbWWFsaxyQEnlCetbU1lqYqCCEojs2ztrZGOWbMmji6ZOT1KgIhnEbe5WksQmB1RI3luYZRbz2jrK2t0Zs1xKW1YOT1KwIhVBZX11hbXewMi2wNmCWcMUJWEysnTrGyssLq0RNEnMYQwMKxVWZmZpiZmWF5dQGLEJhVJ4lKC5/Hgc/na+PFJNo9CHoCt9VFwa/TP9CHSRGbgrA6Qj6fZrQvYQiCM0XYbKG/FKJ/bgzVFyPusyIUFU3TCAQ08n3T6JqGpmlYle3nerCrrA6WVtdYW5nHJgQma8iop3ljLolIsZ+1tTUGq8Z11ztv5A1ZTQhhZXZljbXVJRxCIBSfkXdhECEEgVSNtbU1JvqN6702Z+RNetSuc+2SwyGSHTh0giD5MLxtqOVCf/+BC8Lb8iX3IEwvjG8u2zRGizuPnR8anDFCVgvOQIq4z8nY1OZd/sTcMNlslmw2S//oKBYhsHmCFBothBBUBqdp9vZSKxuNZnFunXIhTS6XI6L5mOw15tYYnF9kYWGQkdUReodGWBhMMTZexhQs4xCCRrOJO5Il3ze27VmO6ZnWDs8sSCSHCykIEjR97yGGgeExhkbG6c1HcAeT9A+OEA148UXzDAyPMzgyRsDvkYLwAXgvgmAJ00pt9ihEigN41HefNvtTwOzLcHy+D5PVydrxU/SmN3uP5tYWGB4eZnh4mJnFWSxC4AplOXr8BCPNUifd0GwTYfWiOSzkW9NUMlEKIyv0lxM0I1ZCcaNXZWRluPMQ5Nh4mWhjHLPZgsViwWJxMpjzYbG054QwWZlbXsCsKOiZBgO59zeXiETysZGCIEHT5VsM+3GYBcGf7enMdyCEIFcq/e5tHjRKu15iQQ9CCEwWJ5HAm82Eqahe+lst4l5r9zqrF5dZEEwWcW+5+881sggh8KYbFGJe9ND2txwMLMR1X/d3FtceU1JLJJ82UhAkaLoUhP04zIIgkUgk74IUBAmaLgVhP6QgSCSSLw0pCBI0XQrCfkhBkEgkXxqHShA24iKcunLrwI/lc0MKwt5IQZBIJF8an5wgLCyv0Boa3lUQrj54zvmb9zuysBF5UdPDBONZBscmyKXjaHqYnoERempGjIRCo59SzyDNep5crUVf3ZgQql6v0jMwSimXpto3TK2UQdPDhNJVhkaGiUQiBKMp8oUiI+PjRMMHX0dSEN6NL1cQFNKlHlJxfcf15ayOEAqZZGjbuky5SaXWs+17f2b7d++bXLWPcr2J2275yPVuZe2r7yloCorWw40b57oe8pRIvhQ+OUHQ9DBzi8v0tQZ3FIRyTx/BcHQHQYjx6OVDEokkmUySiUvPaOSz9C1dpJWKcfrRz9SLOa7/8g96y3mu/PBnAnqYp9+8JJ3O8PynHyhkM9z/8Uc0Pc9vz04SSxX47uV1Ivle7pxdJJau8eD06IHXz8cWBFcwRT4Vw2Z34vCFqdR7CHhc2Owe8tUeMqm4FIQPxPsQhOD4Y3K6n/raw665GAxM/OHhHELYuHt5eVte1eFi6u6/b3sSf+Te/3j/T+ebfZxeMoIDCcXLzfVRnG6dr66f/Kh1npm8iu7crHerL8fScP5Azr9EcpB8coKQyRe4emPnIYRrD19w5f4z1k5f3C4IsTwPLy130t559Z3xOdni1lSG9XvfoOth5h/+jaAeZu7evxDUwzx5dANND3OzPXHUmWd/JFia5UJfFE0Pc+XbH4jkezkx2UDTwzy/vnjgdfRxBcFN0OvZDJRUNQIlFfv70GJ5HA4n/lgRj1MKwofgfQiCrXCSI2NVVKuxrdbxx/T3Nnnw/SuEMPHz83XCsRwPrq6g2APcvn2F5vIDRtNG7ITRrzYFoXnqOwZ6m9z98b9QhOD2T7+SKQ9x4egYQgiePrmNlhzg5ontPQyO8AgnV2Y49fTvZO2C2rHHNIolbj24gyIUygMLHF+YJl8oonhKrPXFMdk0LpyaRtiynD82y/zNX1GFoL52n2ajwcm7L7EKwaO//EY8muXbJ6cQJhe3Hj+iMnSc1dEspvgRzi6P0nvsKQFFkJu4zOhAk7U7P+AUgqkn/0m51MOjr44ihGD68iPMWyMLmuycPbt44D/WEsnH5pMThJ16DjYYmVnYEWN9jPsvnlPI5Wm16vSfuMd0f5Wp9a+oJ6JvJQgBPcO//nCTbKmXbx+e+8IFwcnrkRRzpcKWUMtuCpXygfQgRKPRrmWnc3eJsNlsXYIQDHZHEvT5ut9fV5TN9+DNZnNHEOLx+FuzsZ13ybshCL9nv0IIXHqWE3dfYRECX6LGxPwaV17+hiJM/OHpMfxalPtXlrEHSwyXdYQwc2GpihDdgrB88xVCbPQgWHnx7D5Ti0d59OAaQgguHDdEoVrLbjsHjXN/wiYExbN/xSYUbn39B6YWj3Lr4QNMQuBNjlCMGqGm3fkprly/y7c/v8JuFhTO/yeLi0dZvPYHPIqgNH2R0xeuUstHEcLE0+tTCGHm+d0juOJ9NLNBTFY3RyeKRBdf4VYEkdGruBVBauAkZy9do1lJIoSZn3/9hqnFozx7dB4hBNNXdhKEpQP/sZZIPjafnCD8HgKRBJl8kUjUuPtPZgskk0k0PUw0nUPTw0TSxtTQ4bTxDEIybTxzEE9n0fQwsUze2FY0RSaXJxgKo4WiRDe2mUoceDkPWhA2ehBsdhe13jqqfAbhg/E+ehBaV/+AWQi05lnCJjPnb1/FZDKxcL8tCFuGGFR/mqneBEL4ODOVRQjByK1/74QSXrj5I2YhWPrmf6IIE8+uz2MymYlEjOcXNgShU2+xYRI+4xmCsXv/RPfpPPrtvxDCyeXTM5hMFsJhI9pgrHWRcHs+hczoRYJuC8uPfsMsBMs//i9MJhPBRBohzEQjAYRQOP/kCcKU5NZyFmHPcH4iTqiySjZkxxZZoDdmZebJ3xBCMHD2hbGfRBQhFM599wtCCXJ7LoLJbEf3Gz0m/ScfYzVvlkGxeTm9MvzW9S6RHHY+K0GQvDt7DTGUaw3KtQb5RBCHN0SxUkPzunAHE5117o8w5fPvvdi/VEEQQmXl/F3mp4y5CGL1Oc5evkpz7gpCKJxd7UEIC0vTxvh/Y+Ys62fXO1JgcWc5e+Mxozkvqi/N6Ss36Vm5jSIEnswIZ67eJh4wzs/kUKVr377GKaqJjQiHCm6nnZe/PkQIQWZglTMXLuKxGVKg+jKcu/mYjCrIDS2jmgSezDRhtwnhTHP62l2K7UmhKpOnOX/9LgmfFVNiibHqCKfOnDLu/M1OVi7cZWa0hhCC+XPrCCEYWFpDCEFu6Djnr98lEzDOae/SFU6un8DWlgLFmebezVM4LQJhcbN46ydCdjmvguTLQwqCBE2XbzHsx+EWhE+D3OJTbj/5gYGM771uNz772Jh58j1u06T68KgCofpx2Q73vBUSybsiBUGCpktB2A8pCBKJ5EtDCoIETZeCsB9SECQSyZeGFAQJmi4FYT+kIEgkki+NQyUIG3EPBsamf/e2Ion930boqWSJVwYIfgJll4IgBUEikUg+Jp+UIATDUQKhCJoeRo9sfn5dEF7nXfb16l/u7pMmxu3jQ/SceELsE6gbKQhSEH4v2f7JzpsJQghGFncP/qNGegip3U/uJ2sN42+jvzu9xUUx7seWHsNsshDPlPBYNtcrNj+lqKcrT25L+OZkuUq91Y8iBIFsDVv7gcPswOhmHptOwm+np3+I4eFhhoeHaaa92FwBhoaG6M1pCKEwkNc6eVL9k53P3kiBUrmOIgSRVA6LSeAKFXCZNo/J4k1SSek0Bjb3MTzUdyDnXSL5FPjkBOH519+iR6I8e/nNjoLQGp8iHE/uKAgXHv3ASH+T1ZkmqdFzfHVskkuPXxGLRFh/8hsXji/w8i9/Q48m+Zd/fUIqk6a6dJ2nz25QyKV5+cvPNAcm+Oar49sE4dz9FzRqvTx/cJaeE4959PgquUzywOvsYwiCL1akUTTiILiDSfoHR4hqXtyhDAPDYwwND2GXgvBBeH+CYGZmvHdzWXExXQvunNbkYL7PCEI1NT3UtTQNcgUAACAASURBVK4Y9zCzcoLTZ85x6tQpgnYLx9bXOXN6HXt2qtO4F5o9BPP9WK3WLgYHjGOoDY5SHZ3n1KlTnD5zhlOnTpF2GXlDPpVT66c5fXqd9fV1JmoJbP4oTo93y7EoLDXDOANxXBbB/FCSeKWF3ZMm6jTeOihOHSVWHubUqVOsnz7N+qlTVH1G/kgkwkwrRX1kGGGJkHBtyJCJZi2DxWJjqBDAYpZvMEi+XD4pQdD0MHokxrMXXxMMR7etu/bwBUsnztBoDW8XhGiOR1dXO2lvffe98Tk9xLWxzVDLPWd/IB0K88c/30fTw1SXrpPUw2jpFl8t9aDpYc48eNklCPFoju9e3mPt6DEePXtB74knRp7PiN0FwYXX7d4WarnQ34/N7sQbzRPXfbIH4QPxvgTB5o123cWHe2Zw7vhqoImJ5VUGhoZo9g8wNDTCVH8aofpoDU6Q0dz4HBZirdXNPBYX5YSGYtPo7++nv7+ffMyD2eYgWm0xMDjGwtQYA60+vE4HiifF/Moq2d4RepsD1OoN3Ik+LGaV1uAERZdAOMMkfI5OREu9/wiK1cfk2DDDY9P4zIYgWJ1+xuaP0KzVqVfKNBoNyvUWLm+Y2aPrlKo1env6KcazBCN5rEJQafbT11MhVayT1DWGBvsIeOzESw1yQQe99R4GCllSqRRzr8V1kEi+JD45QdiLPYcYQkm+fna9k/bogx8I6WGSrVXmi4lNQTjzPelQmF/+8rAjCAk9jBYu8f0tYy6He18/7RaEUIqnD853tt1z4gnxT6A+Po4gGJKwGUmxTjqf7YRadnj8xIsNHAcgCA6Ho2vZYtl91j+TydQlCKqqdq3fSwAURemsbzQab83Gdt4l74Yg/J79CiHIDsxi3yIES4tDe5Z/7NgcZleIiFfFvFGvSoBiLMLKygpHT55hZWWFVspBrtrP2tIM7kSLhYUFFhYWGMr7EUKQG19FmD3UEhpms7kTsrk2OIJW6sfq0Mnl68wtDrT3oVF0CSy+BKlokGi6gce8KQipgAtnoNARBNUXItOcZm68l8XFxfb+p7GbjB4EVySDzewhH44xM9UeGlE1FpdXOLq2yvLyMsvLi1jMhoh4/W4a5QoLU5NMTExwZLx24D/SEslBcagEYT/ilSEePHnCaE8eTY9w9sY9zq1Noelh5tavEtTDlBZvkNDDVOfOcuvSCfJjx4hu5K9N8uDRfcoZ4wHG61fPEipPsD5RJFYa5N7jp6xM9lOavdDJ87mwlyDYnR6KxQyqw0mm2oPd6abS34OWKOJxuwmlq7gcsgfhQ/C+ehAWpjeHF8yeOLWIe/f0JhvLfdGOIJisDoIOBaEEyGl2FCF27EFQc9NMjI8zPj7OXMOYQvr4iaM4VC/V6JbgSGaVscUjpHUfPk0nUewl7W7Xr6JRDXqIZWs4LAJPtIZD2RSEpcUFZmencJkMQbD7I2T7JvF4fZT7x5mammJmookwWRlYPEEtG8brD5DKZOlNBwxBsYdIeO0Ecy2cZoXC7On2sdmYrIYpxnV6ow5Gmzl68tHfXfcSyWHlsxIEybuz1xBDJJ4kEk8SCvhQXX7CsUQ7tLIbPZogoGlyiOED8T4EwaxVyfs2t5NtjmE375xW9SWYHBvEoggU1cfUxBgjY5N4LALFU6AnZzSYXYJgdXcEYWOIYbahEy238JgFmXIv89OT7Yf+mihmB2ZFEI5E8XgCDDbrjBSj5L0KjnCNRibM4GATk6IQq09gFoYgCCFQlI16sbLUG0LP9jHYrBH0uRDt4YjhVhZhsmFRBD49hsflZXSkxWBPiWZQweEJ0OgboBDXiKXzjIyPE3Db0CtjBBK9FKsNLIpgrDdGutE88B9pieSgkIIgQdPlWwz7cZgF4XNAMVsP/Bgkki8NKQgSNF0Kwn5IQZBIJF8aUhAkaLoUhP2QgiCRSL40pCBI0HQpCPshBeHjoKoqdrt9RzZeeZR8nthstl3P/VasVjnc9LH4bAQhmswwubjGyPTCW+Xr6e/bdV0kV6eY/nyCIUlBkILwKeJyG29U7CUHdrt926upks8Hq9X6RnKwwbv8X3g8e7y5I9mRQyUIkXiSaqNnx3WZQnnHGAkjM3sLw90ndw68XJ8CUhD25ksShECuH0s7BHF89gkuIYgPnUVzvumdm4ubK6U3Srvw9D+Ie22d87MfQggsHjfJpIOJRb2znekL1Y9SN/3rdXpa2huldYS8nbcu9kKN6cxca9Lb69o1jae/Qj5t1NPMtSbTR5NGXfjczFxrMjTkeaNjeh1rwMfU5QYRfZcYIh4fQ8O7b7t+rIp5l3W98ylCU3Usb3Acu8lhsWeQeja87fuNmCfFhSJaTwbbDttUrCrFopPhxQhCCGyBCt8/OfJRrpPPhUMlCJoeZnntKK2h4V0FoW94nFOXb24ThFCmyq0793jx9VNCepjZM7e5f/8OP/3wgGA0w4NrZ7n//DsWp+a4++RrRnJR0v0LjNXzLN3+hdNXbvHT948OvPwHIQixXJVaO9SyFstTqtTJJELGepdOPqlLQfhAfAhBsLqC9AyOk0kYDawayNLTP4BqMaFqeZavf8/Q6CS5ZGCbIJisLmr9I0T8xt281RunpzWM2278YEeLfRTSmbYgKOQaQxRzRmOmhiukC00qRWNZWDOcGdoM97zZADhIpjNEAl4cLh9+j7NLEMwuB/GYjfFpIxiTsHsp9cbxWI3tqJqLcMbbCcrki/vQ45vXTzDtx+s1jtfsUInkNTztZTXgJpLzY93hNVBfq4RVCNy5CCYhUKwWQlk/TocRjjkcsxPK+rCYBWaXk/x0gXhRw6dZEA4HLp+LUNKQAMVsJpT143FthHI27SkIzYsVGpOhznJjOrllvalLEFS/i3DagyIEzoATodpx2gQebfs1XJ9LIYSgPJdDCEEo7ULP+rGZBcJiJpLXCGob16CCnvXjCRt34q6Il0g7INbW8lstxlBQfTKBNlLtnIe92CoI8VSGeCSI3W7H6Q12BCEcjW4ThOxUHk8ltTnHiMODzy7adWwhl7UzNLUpktrUt0SsH///+LBy6AQhEk9w+96DXQUhEIowPre8Yw+CniyyfPEFA5UmT0620HSjByEYzXD9yCCanub7K5Noeo6/XB3qCMLK3Z+J6mGq69+TCx18HXxsQXA4toRarhmhljciKdaaDdmD8AH5EIIweeExfrebbGMQIUz88PIsDneIG6enUMwqjdV7aD4PqtVMfPYJd558z/0f/h3NaWX8wnf4XS5Wnv0DRQiOrK/h8oS4cfUkQlg4szaCW+/h5koJrX6MXMBDdnidhGZHn3pKxucgu/YjuiJQQhMMaJvPFWz8+LsCJbK6G6/HhcPpwevuFgRhUrBYFJztxtXXk0W120mnDGlpjgWxOe0MDbmxhTQiYRV3PEBYt+JrVXA5zCRnjB6O4kwGq2pGixuN3ujROFa7lVDY6C1RzAqmdpTF4Gilq7HLT+VQ7RYqSwWEEMyciGOyWmmN+BEmE6G+NHaHGbNZYIpGSWhmHMkQmk0hOZ7H4bBQOLIRqbFbELbuVwiFyTmN4ky2s/+9BKE1qWNzOWn1Ogj3xnCXkhTzDrJlI43JrGBqC1BjJtmuhzxCCMbXs5gsZsaPxxBCYFFVBppGxFJ3I4/PZSE+aqQ1WczEp8ud/W6Uv380gBAC1WnB5HizYaGOILhjDKS8eDyebYIQ0IPbBMHqtGFSjXMVbsTxaX5Cuod8yTifNquCw7X5P6ToKzSC8lmWN+VQCUIoGufB4yc7rttviKE8cpzxRpZozzrDPYM8WG0YgvD0LsFohqsrLTQ9zquLo2h6mn+7ObYpCHf+QEgPUzz+NYUvUBBeD7UcTybJ97XwxQr43G707MGEWn5b3ocgNJvNt2ZjG++Sd0MQfs9+X8cRqnD/+7/y1dUTCKHy87/+gyc//Mazr44ihKC48BX29l3g6z0Iq8/+y0j7429YhML8lRc8evUXXj25hFDcLLZibAwxJMau8OSH33jy41/Jhz3oU4/RtnS5K/o4g4HtgmC329ETRWYHizsOMbxOda2I3eugd1RHCDO1ymYIbmcyhGPLrJTR+R6GT1YYWTe6xm2al+H1KvUBo1HzFmKMnq4Ra3e5uwIOPAEHitgiCO2HJSszGYQQpCaLKEIwvRhACIXh9h1roJHqDNWYolG0LTNH5mcNqQiN19p3v92C4NAceIIOY53LSyWjkhjOYm/f/e4uCGZ66sb/yvi0H3cmRG4mRn4yQjSuIoQJT9DR6U14XRBGT8Rfq19LRxCCI0b5/fVUZ31kYnMoaaP8A9Pht/7/2tqD4PJHmZ4YwvGaIOw0xPA6/nqKQtGx634UfY16QArCm3KoBOH3kO6Z4f7tG5w+c4vhQoTz959x/doVvv32jhSEfQTB6fZTKuVwOF2kK01cbh/1vhpePUE6V6DU6P9iBOFj8756EPrWv6EUMxqRvsULxKMx1u79ilkofPPqNsFIjvkR424wPXmVQjqF12XdJgitk89IRiNMn7mJUDTuXprDq2d4dO8SQpi4dvEoifoiN1dKuHLzDBSTFAdX0FyWbYIgTDo3j24+O7Dx4+/Wc/T2NhlsZPEEkuQi/j0EwURrOozVbqE6m0YRgtZ8DHfET1/DgUXzkS950CsxdM2Ms5onEFSJtxIIIUj2RXF6VWrzxt15dSSEU3MyNrX9OQM1kySRdJKbLaAIQXo8hzdgp3fF6J5/XRB85QSabsdmU7YJQnQoh6Y76Dm5UX6jYXX5tt9x+6oJ7HYzrniAcMC4W67NZ3H51Y6AjC5FcbWHfQaW4niiGo2iDbPmozWhkZgp4fdsbxiLMzk8moPeeUMUtgqCYjbh0lwMjfhwOM2Y/Rp900lqS4YUqB6V9FwFl1/FpOwvCKGwibxj5+tzQxAc3gjNZpNWXx2H3U1rcJjZiRECTgd9I8M49hIEs5VsSsVfiGA17byf8vnf8O2yTrKdL0YQJHuz51wMLo+Bw+hNsDvdqFsbb4dbDjF8IN6XIJisxo+4EALFZEG1O7BajG0rZiuq3b7lgTqTsd5sQjHbOmmMu2cTNrujMw2yxaaiqrbOq2cWm4rNasFqMdZbVTs220Z3vW3beHR27jEnZpud8/MmDyluK1v7B19pd8krJgWzdXOaZpPFhNmy2TiarabN7nvFSLu5DRNmq2nXcfOuvO3lTvjn9j7Mr603mYz9vL7NrfvtHKd1+/TSypYppzvH2S6jskPebeU3dW+ji3b5Xy/D1nVmq6mrTFpPumufG/vaqfxbuTtv2/FhQiH2f4PlTXsQ9qLvyENOD7/eQyLZCykIEjRdvsWwH4ddEA4DFotlz0bhoM6BZJP6bIZi75u9xfE6tyq7SIowrvO3EQQZE+PjIAVBgqZLQdgPKQgfB0VRMJlMO3LQxyY5uHO/FSkHHw8pCBI0XQrCfkhBkEgkXxpSECRouhSE/ZCCIJFIvjSkIEjQdCkI+yEFQSKRfGkcKkEIhCJEEzvPjbA1DsLo7BLVZotqs0UyVzjw4z4MSEHYm89BEHrGp7uW55Yndk0b75vDaVJwqZtPi6f7x3FbFSojwyiK0hkLDqTrDAyN0F/PkKnUGZ2Yppb24/QGiMfjjE7NkYjHicfjxOPGK3C1wVEc7hCt1gBLS/O0Wi3sQnS2m6r14XAGGB9udj/9b/LQF985+I6q5/HYXbQa2QP9UZVIPhcOnSDce/iIcCy+qyAcOX2Jq/ef7RBJMcaR8zd48PARpxaGiVTGuHX7JplElN61m7RmT3Lj/MqBl/HTEwQXxVoPlXagpHC2RjyZplJM4gplSKezxBPJ7tcepSC8N96bIJhUJluFzWV7jP74zvWhainyuhFspjgwjnXLOrfTyXBfjcbUMeLxODaTQmZgiYmJCUaKGv2trXMwKCjWINWos9Pwdx4wUxQUYSYUCjM6OkAopCOEiUhbJJojU2SScRKJBH6njWAqSzZXYmG8STabNUiHsHv0znK+PkBvuUA2m8byBnMgSCSSvTlUgrDBDz/9vKsgaHqY/tGJHSMp9pcSxEevUo3l+e7KJJoe5+7VE0ze/o18NEzv+ksyn0D5Pi1BaEvClkiKdqeLfF8LdyhLrt5HvVI4kB6E1xvP/Z5u3ioIr+fd7yn5wy4IrmCepLZ5512aWOm6M98sv4XF4yc4cXqdgaFRmpUci0sjCKFgVSOkXEYdx1qrnbzpnnGEEJwYjrGwfob1M2c5ujyFEArL62c7gWmszhARp0AoZqL5HuzCeLXRwCinI1wh57WQrI1RDLoYnpvfPE6Tm8FKHKfTidNpXA+KydxZVj0xch4546NE8r44VIIQDEd4+OQpeiS2qyCcvHSDqw+eb5+sKdvkzs1LXLt7h1BuhG/vXmH9zFlOLo0x+dVfiOhh8kv3KH+mkRLfpyBoQd2Yi8FhBEzyhgt4nF9GD0K801X+5mxs413ybgjC79mvEILeqYUts+5ZWRov71ne2aNjmF0hIt4tDa4SIBf0Uq/XGV08Sb1eJ6XZyA0sUK/XqcTd9Pfl8JUmUIQglq9i9dZo1evU63V6moOGIAiBnqlhFwrzA0Wy2SyTa3Od/WjhEONzMzTGFrFv6QmwemMk/MY51IstzBvrFD8lr0AIldG878B/VCWSz4VDJQiGJER3/D4QihJP57YRiiXQ9DDZvnmWx5ukMhk0PcqPv/5ApVxhuFmVgrCPIHh8AcrlPG63m2SlD58vQG+zhDOYIhbWSVeaMtTyB+L99CCYmRvMdpYdoTwJ7+51oahBhpPOjiCYVQ8Jj4JQAtSzCWyiuwehNjLV+dzM+juCIIRA8dY4urrK6uoqa0eObgpCtpf5kTrHlqaZnJxk7eQCQggS1SGGKzHStSZWxcT04mxHbAr946jt3ohMc2BzBr+2IFitVuaXBrC6A3hs8l15ieT3cugE4V2pThyjmo4RiOZ4dHXtwI/nU0M+pLg3h1kQnJlRQlumuK2NTGLdZYzeqRcZ3njIz+xgem6eudkpbEKgeHMEHcbxRPqWOnlG+4zJe/zVaeyKwFsY7RIEr2JsK5muoLen4s33j2MzKYykVMw2J0MLxjCF1WzGEYjTHB7CIgRCmPC57fjTvVTiHoRQCIfDjA71GsfrTzI3O005l8RiEthCVQb7+nHuMF2zRCJ5O74YQUjWxrh37x63bt2knt/5TYgvGSkIe3OYBUEikUjehS9GECR7IwVhb6QgSCSSLw0pCBI0PUw2X+wQjsYPXAakIBhIQZBIJAeFFATJjhy0DEhBMPiSBMFkMu057e+7TPErOZyYzeY3ngJazvL54fj8BCGZQyv1oKVlBMXfw0HLgBQEg89dEBSLi0q50Dk/+3HQxyv5OLzN1M/yuvhwfF6CMLZC8Mp3BK++Inj1FYGlC/vmibVWqez6amOMpw/338Z+RNM5AnumiXDz1BjRYpO+cvbg61EKwja+JEFIDZ/EZjZeE4zPPsElBPGhs2hO6xtuw8XNldIbpb3x9dc4rKbO+XmThsDidpNMOJhY1NvbMTF5trL52uMHQnF76Z1J0lxMv1F6byGC2fQG59jrojiUoLfXtWua0HSdcsX4HygMxRleSiKEwGRXKQzFGRryvEOZFJqnqpgUwch6fkucjE20eqLz2d8qtd8s2XubA5OhHb43Mzzqoz6ffaNj2/H8u3wMTMzj31UQTIzN6mTnypiEIDRRpzgYo3fFKFukL0VpOEGlT0MIQXkhT2k8TSpqwRHWKI7n6JuIk0jvfh42KC4WKY2nScdtmOwqrYU0xaE4kZhKuBamPFukNhon6N7vdVuF+kKO8kwev1PgKiQoD8WpzmRx2RXSg3H6T1QoDsdx2wSJ3ijjF6pkSl6EENQW85SncoTcCvZ4kKFhL1afi0jYiuLx05hM0re8//Vq1bz0TCWozedxWASOao7KcPwzEoR4xpCCK9+iRHN4li4TvPoKrdzspBk685A/f32iK19i5DQ9bxv7IFTgb3/+honpZV5dHNs3/crVO0T3EYS/PjtKsmeS2f7SwddllyC4aA70U2oHSkqU+/H7g/Q1i9jsToKFvo8SZlkKwvvDmxrmh7//b84dHUYIQWjgAq/+9G8EXVZCfdf49T//D7/+5//hyvHWNkGw+TI8//P/ZLZhNM7e0go//PbfyUfcCCGYv/UrN9cX2oJg5sp3/+TW5eMIIdCnHnP6xi88vGUsC3eT2fRmBMvOD77DxeziCq1iFI+WIBPxdTUEZqedWNTG2EQ7KJI/SDIeIuAytqM3M0yeLXcavOpqlZHlZPvVSxODp+uUy0Yj4IgFmbnapFA2jl/vzzJ9qYHPsf2HPThSQRECi8dp/PW6mbjYIBkzro3ppQjjF+p4HCac6QSz15rMXmtS7/VgikbJ1NKMHcu0y+Bg7EKDfGYjEJVpT0EYvZynPrcZ/Koxndyy3tQlCMHeNBOnS5iEIDUQxxQIkdAUis3AtsapPJ5Bd3qojSYxC4G3nGTiTBmLIvBX050yFIpO/K0SmYkiA1OGAGyUP50wyq81s4yspBlsC0Jhvsz0xRp2i7G/gZaL8nhi1zK+/r9qt9txuHzML6/SzOrY7Xb82VZbEDxM92e29SAMjflJjOWN63q8ZlwDngBJTaE5Y9RfccZYPzjuRwiB2n51V7g1kt43+R9SmJ4x8gajdkx2lWyu+/dJjUfxqvtvSzFbKOQdCKHQbLpxFYw4I8Jmp5w3ypUaz2Da8lrywHqucxz1ugshFMYnfNjjQaonyh1B8I/UsAiBYt1/aM6qeYnoVkyqSiZjx1HNYRefUw9Ctkzw6ivM6VqnByF49RWB4cV2miiP711g7v6fCOth+tefsjjcy9yFR/SEwlx9/gujrR6e/+k3pob7+fpvf0PTI3z/+AKRfC8v75yn2DPFnWMtjjz4geCWfSfrU1w9PkN9/Chn53ppXfyJ0yuTLF15RlwPs37vKdlUiki+l2/uX6SYT3H2/ksalQq3vv0D0dcEYfTi1/TXytz5/jvilSFe3jlHIfdxX83sbpy3RlJsoEci5PtaqG6dfL5AsVLDfgCCEAp136k4HI7d/wGs1q4fEk3TutZ7PN13YFvDNptMps9KEMbPPSEeCmBzehDCyvc3RxDCwp2rR4wf0IWvsFs2exAu3XjI9Rf/iua0snD9FSYhaN34D8xCUColEcLC9RvnEcLO6mgGoejcXCkRGbqAQwj8xWlyYTf61BN0s8DZd5OISaCEJ2lpm/W88WPv9CVpljM4HW/WlRweLWC2WSmUjB/LRo/xN5uz44jruO0mzHYVr8dMaLqBSQi0wQKKEBRmsjhcFsw2o55HTqSxqSasNgUhFGLVEKmajlkIgqOVrvDUpZksihBkZ4soQjC9qiOEwtBkECEEgUYKS7sHwRSNErQKTH4vQVUhO23sPzZX74jLVkEIVUKk6qH2PBgWRgZdZCZznV6S3QVBodnvQQgTo2MegrUogd4UpbqHVMGFEBZS9RDJshFTojYWprlWIDmSwSwUhkaN78cmDfkKD+U6+/G3SqhC4G+kUbaUPz1bRhEKU3N+hDAxOB1CsVmpDwaxWBQsljcLWuXzbUbB3DjfvlCORjGFo728KQj7XxehiTqZRojGShGrENsEwVeI0FzK4d2QwX0EIRDYECxDEPRyiFTehcmuMrSWoz6dxu98M0HYKGuXIPQZgpBthChOZvE4DXl+I0GYNATBqevEom4iYStCmKjO5ai0grsex8Zv5lZByLYFoWc6/RkJQiJr9Bice4K10MS7ds1Yrvaj6WFC+RbXVsfJ9h5loT/D8z8Z8zkkRo0ehKv3HxPUwxx/+EcCepjVr/9JYIsgnJhsoOlhnl9f5OLXf+ja99Dxu5STYbRQjMcPztO6+BMxPUx6/Cw94TDHbz8iqoe7tvPi8SU0PUx64BwDhWiXIPz6z//gxx9/4o+//YNkZYiVkepHr8/dBaGO0+0h39cilK3gcDhxaQkCPvcX0YPgcDjemq3/jG/LhiD8nv2+jsliJ5KqcO35jyhC5dWdo5RqvZRysR0FYWsPwvKdX420tR4UYef23SsUKj3cvX0JobhZbMUQws3NlRKJscuUa72Uak1cqgV96jHa1gBN2jCj4e2CYLfbcbq9TM0MvFFD0DxRY/BYmaHZCEKYqFU2y+5MhnCom/uIzvcQTHgIJDztH2gz7pCbvvawgVm1omWCDAwa601mE6Z2XWz0IJiddhQhqEwbvQGpybYgLAYQQmF4yuhdeV0QtC3DDfmZQrsRq7Ub/W5BMPZrNBDmYIDxUyVGz9Zx2Y1j2V0QTPQ0jP+V8Wk/joROeS5CdjbZbjQEJosJk9kQoPqYMbumIQgmhqdCBBIeArqR9nVBsAiBt5rqKn980hCEyXEvW4cYrC4beilKIf/282NsPecut5eF+dbbC8J4DZtls4eqWxAUVKvRyI4fNa77t+1BMJlNDC1E3nsPgt1iQtlyrbxND4JDNTGwmiIS/v/Ze6/vyLH8QFNntI9Tre6WRket7pmWGWk66wLhvUMgvPcRDAbJoPeeSSbTMb333lZllsnyXdXqbq2ko5ndo4d9239mz/wD3z6ADJJJMpNZacjMxMN3TiAAXOACCNwvfhf4XRPm5Wyp9kIS+3MGL3v3IwiKim/s4PpnEBYvteY1Fy5TToXxBaPcvXiAxQffko7Hqc+eWycI+7YhCPHeJZb6K4SiCbo7i+Sa80z3Volm61w8MLhBEObO3yIRja4r59KDB0SjMWauPCGphvj9g/3Ea0NMdBY58sn3JGMxIqkU0VI3sz07KQgOgqEYlWqJgM9NONuGGopSLadwKkmyqSSZSl1PtfyaeFURhNEb/4uOnPZPYuDoRwyNTHLm3mMkITj32Vc0B+c5MqllJww29jM9NUsh7t4gCJmhMwwPjXL+488Rws6NO1epNse4d/0kQgiu3LnLwL5zXJgtYPBVObYw0U34vgAAIABJREFUxcyJuyjOTQRBmLlzbbH1r7wlB+4QfYND5CI+nN4I8aB764ZAMtLerYV7syMpZCFo7M2S6EyQiRiQrDY6RiLkh7O47BJyUCVbDVCbyy+vkyVWDNA+oTW43YtZYpUQHe0bw/2Sx09bX4j2vcsh7PYEqWqQjuXQ/9OCYE+qZNsUvF7jBkHwlmJk6kG696VXb/xzKeLlp7sBBMHGsrx4XMRDWmObG80SryjYzWJ5vzPEywEkSdBYyJFsJkkEZCSXi65eN5GhIm77xoZuvSAI2vdliZRDlHLa9e4qxEhXFVwuwwZBWKl/5/LzEF1LZWLVEP2jQSSzmfbROLFahExy89/O4/Gtf1Mr59vlj9I/OEQ66MIXTjM+Ps7Y6DAuq5OeWuy5grD2uYpEf4ZEOUi9XxOYrn05Eu1RKoXl9Z8ShOhQEZd98+hH/WCJRHuUQlbrYqgPRYiXFfwBTayeFoT6YnnzukoS7bMZ0n1pVLe02sWwdr/XCIKS9dN3rEQ4rt0P2/fmSHWniPmkZUGQiI1WCKkmrJkEhUaQxr58q6yRM5VN98Pkc1PqUilO5HGYtWcQ0hXlHRMERcWXq+DrHFn37IFPUekaGl2VhaFh/EqcsalZyrUu4opKZ/8gPkWlOqB1SZSHF/ApKiMDXSjRNLVCCp+iMtBdwaeo5DsGmJmdIR3TBo5q6x1hfGQAn6KS6pxAUVTUfAdxRSWUqTI9PbmunEAkzfjMLLWc1nUwOD2HP5xktLcNXzDC8OQMgz3tBOM5ytnEDgrC7uFlG8n3WRB2K85YJ3Pj3a3zoz+t/p4gCx7Xtx5BdTe8xVCfS72asgwm2ns2it8bx2ynvfRi0Zx3TxB0Xgk7LQO6IGisCMLKMxGSJL2zGAyGZ3aZmM3mHd9HnTeDyWR6oe60nd7fF2XHZUEXBJ2XYadlQBeE9YLAn/yJjo7OO8Lvf/rTt0IUdEHQ2ZSdlgFdEDYKgtlsxmw2YzKZNrAyT0dHZ/ew2W/VZDLx//7n//xWZAbVBUFnU3ZaBnRB2CgIJpMJg8GALMs6OjpvMbog6LzV7LQM6IKwuSC8TFjSGUyuy4QXypbXvde/FsmuLr+DvxYDjuWkN2bf1glvTI7lB7JkM+bnvF6lo/O+IUmSLgg7QrqI/+RHBE4/xn/qY3zFxrbXbY5Orkt+9Lrxh6IE1RBqPLPzx00XhOeyGwTBaDS+lCD0jg6um56bqG9Yxu7Jc/DgQQ4tHeXgwYPLLOKRBUJIdDS0J7sr41OtdWpjBzh48CDKsgx4S0Mt8RjeN47ZsvIwmZ3ero3b1NF539AF4U0TihI49Qj/6cc4J47hXbpN4PRjbfAmRSVc7mVfb23L9Q9dvon6jPJjxSY3bt/h1s1rJKPh5+7Pg7uHnzk/2TFJfzXL+OVvCO70sXumIDgp5HOtREmJUjtOl4dao4wvlsft9uCP5vC6HLogvAZelSBIZhc95dVUvaZAhYxr87KMjjATXQVSqRSpVAqfVfs+VKxhcvjxWC3MdUUIZmpYDIJSzxDCGkE1GrCYTSjVEcxGI45YFVkIkskkyWQSv1XQ1dm24zc9HZ2dRheEN81yqmVjvhP/qY+1SMKZT/B3T6wThKHL/8TZU0d5+OWX+BWVxfN32Du3lydfP0ZVVK7dv8Pc0nl6kioXb99ASQ+w1Ffg1t0r6wZcyg+f4OShfTx4fA+fonL/4WMO71/ko1uniVV6+fbJDRrlHL2Xfs/JMydJxqLc+vghc4dOc3wgu0EQLj54yNT8EvP9NQYv/cDJU8eJRZ4vIq9fEOw8nWo5mc2QbXS25udqbTsSQcjlcuum16ZqfZqn35eOx+Pr5ququm5allff0TYajTsqCJIkvbQg+JINFNtqnXqmpjevv2Skf2SS6HLqYSHZaA9KCLOPeiGBS01TafQzMNWkUGsgCUGlfwI1XkaVJZq1ZCuCsCIIXXk/QpjpUCVdEHR0hC4Ib55kjsCZT7AP78ezeBn33HKq5cbgekG49D2qopKfv0chmuPmSS0x0qHLNwnlp1nqK5LOFfn9pUFibSP88P0DfKE0t84vrNve4+8/w6eo+Cv7mSiF+ejWaXyKypGrt1EUlc/uaRGE3kt/0AZqKsxyqENLqvTlv323ThDUZA8XJtpI54o8uHSYoUs/ENrh4/ksQTBb7auCYA+SDnn0LobXxFpBeJlnEPonx1enZQdj7ZFNlzNZPBitISIrgiCWBUEIhLCwb2oAIQSWcCc9tQRCrIkgyIJwrkaooguCjs6z0AVhB/AfvLZ+oKYTD/EFw5sKQm7vHQrhDA8ua6M7Ll29TSg1zMnBbKu8nr0nOXvnISElzLV7N5efUQgTUFVufvMNfkUlOXyBnlSoJQhLK4Jwf6klCCFFxZcY4MJEEZ+i8rs/PlwvCLEObs6tdn+s7OPuEAQHmXyJ9kaDZNhPIF4gky2QTYW1Lodalz6a42vklQiC7KK/uJrJzZes4bc/4+ZkCdHTVqVSqVCp1FuCEC50EY9liHisVPvG6O1uRxKC2vAc1WoVx1PPIKwIQrFUplwuo9p1QdDREUIXhB0ihH9glsDJj/CPHcQXDLXmbSoIQZX6xBG+++oRx8+dR1VUevdd4Nuvn9CejHDr9DQ+Jc6TWwfwR7Lc/exbvnx8i2gohBLL8+iLbzi7twefom4QhIVrn3HlwNCqICgqXXNn+fqLx9r66QafnJukMH6BkfYUlfHjfPPdN4x3FneZIOweXvZif18FIdI5g2XNdHNoaMu3F4QQCMtyBEG2s3BgP1GrQAgDVqMWVUgUisiSQDJYUWzruz1yneMsLkwixKogtI6hK81Es7DjNz0dnZ1GFwSdt5qdlgFdEDReVReDjo7O7kEXBJ23mp2WAV0QNHRB0NF599AFQeetZqdlwOpVccZL63jZi10XhLeDt32Am/eNd2lwojeFLgg6bzW6IKxHF4TXj9FofOaQvjt1DnQ2R5KkFxqSee2rw+87uiDovNXogrAeXRBeD2ZfiZMHJ1rn53ns9P7qrGIwGF5IECwWy47v83aRkwvsHaq8tvJ1QXgN5Cpt5CptqNH4ju/Lu87axtri8OLxaLkOLHY3vkAQu82O2erA4w/i9rz6PAi6IGjshCDkJy9hNWrbiY7dwSEE0e4j+OymbZbh4MLsdt5WMHP7xqF152c7gmB0OojHrAxOBLR1JRO9+/KYXvO4D8ZohFzRTXlbdRP4awmM8vOXk8xG3EEn9bpji3KitJfNRJpZQoEXvw7DQwU6+n3bWjY+UcGZCrXO//Ouzc3OUSKVZbw7u4UgyHSdvo0v20+lt0Mry+SnMdq1WrbBhnHNuczO30CSBEJI1I7ewx0p0TazsDxfxmpZbWgt+WMEPdrbNo76VaLZIpWTn2+6/6mJEq5cdLmuEs2xELHRSuvNm3D7AQph52u5lnRB+JEMDo9uOe/szQecvfmAk1fvML3/SIud3ud3kdXG2kkiGm4lSkqV69jsTkqNNrzRPF6Pm0CsiMuuC8Lr4HUIQnniPHP7DnPu5m2EECzd+5LR+ZOM1KLYwx0cufktM4tLNEoRomN38JrNJPuO47ObiHcfYXbvfi5eP4MQgtmLj5nef5p9o9oYC+duP2Ri/wkuzBaQ3XnOHDvMgXO3cZoEyvA9xofHOHn/K4xCIPl76FNXw84rDYndHaNezFJKBXH542RC3nWCINssBBUTjU7t5m2KhQl4vYT8Wlm16Sy5viTxoIywWGmMxSmNZnBYJWRfgFJXiPYpLclTpCtJphGmPqKloW6bz5PpilEt2TYct0BvCUkIpOXXPQOVGPlmhPpgCCEEIwczRCshMikLJq+bykyBbFcYNWRGDocptSnkhtKYZIE7G6HYHaFzZiWjp/wMQYiT25cnPxInrJgxqwqlngjN+TRCCIpTGYTBQNuAuun6nXvjlGaz2vWkBKn2RWib1/4dhzripGoq5U4tT0agI41F9WE0bO/a1M6Lg67OOtlirXWexpYFId87juMpQTBbTQhhoT6tZfOMjV/BaJBWr/fgHGmHwChLGN1FsrX88jYttI30IoQgN3MGIZkRZpW5/iLCZEEIG93HjrX2L7H0g3ZdtV1oveZ7/Q9ft+YHO1JYI0qrrqV2L/56arWOljCLw68niqALwo8kFI1x/dbtLQXhxOVbTC4casnC2ZsPWvPPnz3NpftPODnXx/Hrj7i2NIBPUZk7eZ0fvvuSXCLM4MXfsv/8Xb786CJ+ReXK+VPc/uRrLh4cw6eotE+d4psvPkJRVA6du8HxG58Q3QXHZecEQYsUrM2kWKiWlzMpuiiXChQLmR2JILS1rU+6EwgEtrzQHQ7HOkF4Ok1zLLZ+dMK1/aUmk6klCAaD4YVZe0P9MawIgsViwWg0YjQaX2i7T9OxeJfBng7MJiNCWHh0ogOL1c61iwcRYmMEoZjJ0zl/BZ/dxMyFT7FabbSd/CMmITCYLFisDs5fOIGQnEx1RhDCyYXZArH+U9itNgKFEQoRN8rwbXySwJCaISgLpOAQnb5V4Wn927S5GR8dwOeyb6uLITGeRzIaKbW5EUKmsqZxt8eD2Cyr2whPtGE0yXgbOQxCkBzMEk46kWVtmeaREv6gZTlPhIHm0RpDxytYhCDQV1qXP6I0ojUmiaE8khCMTPkRQqJnWEGI9REEORzGJwuEw47XLJEd1a6/4ODKP9b1glA/XGP4RA2npAmC5PETiLiJKGaEJGEwyYRGqtr+yGYGDpWwLP/rLh/U1nVLAiGZqDdcKF1pLJJAHasjCYHSq0VBqsMxDCaZ3HD62bkx1vyO1l7PK+ela2iMfMy/QRC26mLwd53D7bYgGRWKXRWEoUIyZiRSneD+F7/j9qMvyAQdpJb+iWAsSf3CH5CXBaF2+AK5mbPI9jhn7n3H3S/+wPRQA2dpP4WOOqG+i6ghN4kjPxDsPo674yIW2cbtH/5vvvqX/4fPf/ge+3aiTeYgB8Zrr6Xh1QXhJVg8eJhyrb6pIFQaXSihyKaCcP3uTfyKyqWPHqMoKic++W1r/IRC1xgX9vYwdPkHIoqKvzjPoWacu3cu41NURo/eJJPr4cxIDp+S4MujDY7ffUJU3fnjsdsEwWy1k+voQEkWsdnsOJUkHuerHaxJjyCs3oRfRQTB5k+0Gn27y4NksDB37VsMwsQnZ/uwO5wEA9pYFvmJrbsYJs99isPhxBOMIyQvl48OYrO7uHDxBEJYme1JIiQ/F2YLhHuO43Y4cXoCmI1ySxBa++WoM5lZ7bZoRRC8IZwOOyNjTexOL36345mC0LGQpzKcoGsihhAS1ZrWiIWjZmwxBYdVRjabsNtlgiM1zBYDFpfWWJltRoQsU5nQGkiLVcZoszIw7t+wHV+ziFEIbLGAliFyNI0QgtToCwjCclmZkRySEIRHlxv550QQhBAYPC4iipnCYhmzxUB0XFvXrAbI1SMo3o1SaAr6aB9PUZvIovgNuLtKuKwy6Unt91QdiWOyGLC5Xvz6bgmCzY7ic+PL96PYrNhsdsa7c9isVgKxFLanBMGamiKR01J9S6Y05b0XKc/fJxkzIoxe7t3ez6FLVzFIgtLJx9p5ql3FIZtonxpFCEFh7ixCCCbP3qf30C38ZoG/eRqzSUZyxMmUs0QP/IAkBM7mjdbQ5WsjCM9DciaY63k9ib10QfiR7D+0RK5Y2nTe2ZsPOHPjPqeu3tlcEG5qjf3pmw/wKyoH7n+PX0nzyeV5opk6lw70r2YpjA1zfCDFnVvn8SkqfYuXyXfs41BPkXSuQDoZ5fi1+290COjdxNouho5mL82efmoZFZeSoN7RJKJ4sDgDVBtNyqXCK0+3rAvC6k34VQzW1HH0K4oRLSQfqe/lwdf/wonDWsbDzOh57n3+W4oRTRCM/jIPvvlXFgdSGwTBrla48dnvOTTbRAiJ+StPuH7zGpfOn0AIwdzlrzi9tKA9gyDbOH3/e65cOY9JFhsFQUhc+/Lr1s17NYJgx+Px4LTbsNrsOOy2rQXBYKZc1RrWRH8KgySINFP0HShgMwiEJFOdLdCcSWKQBMJgonOxRFuvFm3y5sL0H6lQrGl1Tw7n6D9cJujZ5Il72UjH/hL15XUtiofewxVSaS1i8bQgyA4nfUsVslnrBkEweZz0HCpTKK1KQXGmyMCRjdf504JgT4boPVAgOVZFkgx0jGuNbWVqYxQgWE9gMQmE2Uyh7EIICXfISXhAa/hsYR89h8ok05vnGclnjYzZtr42V86Ly+3B43ZhtVrxeL14vV6cDhsOl+epCIJE3/V/pe/yD/SdOrPm2GoRBCFkDJLAYNR+b0Z3hs6zX1Ee0J5RcBbm6Dn/JWpUO8YmswkhDFoURrZTWfqUzoNnMcgSkjlIx5mvKPc3W9ux2LZ/D+g78RjVvnUk7mXQBWEH2FQQ1AKf3jzG3sPnuLa/n6Erv+fo4l5uP/4EVVG59/k3TE3OcPf6KfyKyt2PHzA6Pk0zqeqCsIPogrB6E34VgrBrkU002rV+XovF8s48Bb+bSbapdCzkt7Xsxb6tH0x90bcY3qbXVCW1i6Dz9TXguiDsUp4e52AlgqCzHl0Q1qMLwutHkqRnSoL+Hv3uw2QyvXNy8CbQBWGXogvC9tAFYT27TRC2k71OR0dnd7Hy29UFQeetZqcFYTPed0G48Mtfcu4Xv+DcX/2Vjo7O28gvfsG5X/xCFwSdt5udlgFdEFYFQQhB7R//kbbf/Ia2//E/qG1Cm46Ozq5jq99qXJJ0QdB5e9lpGdAFYb0gSJKEwWB4oTwITxMqdGBdM13uHcK0xbImR4SIy7zuO5fPj9FgQEkVnlreSC6T0LaRSGEyat+brY4ty98aIx6HZVvLGk0WCrk4Tq8X4/J3ZrdKIJLCGwhhNNsIOk0/Ov+Ejs6rZuX3azQa34pnanRB0NmUtQ2z3RclEdW+s7kVMvkiXqcDs9VJPFskFg3rgvCaBWGFH9//KTM42Llm2sxEV2KLZU2MDVSQJAPNRqH1vWx2Uwjb6Z+Ypre3l97eXlxmI9FSN9MTI7TFHQxOz9LT00M9H8KdaMP6wvtpZm9H6LnLGV0h5hcX6OrqoqPZz+RoP2ZZotDWZHR0gvHhAQLBGoM93XQ323a871lH52l2uvF/5wRhJe/B0rkrr6S8x1fnn/ouzGfnRna8nruB1YbZRdDjWk2UVNYSJeU7GqiZipYoyZ/A6361iZJ0QdhcEH50OXY/bcnV5D/ObP+69/LX0jk8RjyRpFxto290hp6kHckZ5cjRo2TUIDGflUjnXGv5bOcwQgjm+rqIObR/RWM9SdyJOsNdWTqHZ3BbJFzJHsqpKAsHtXWbYzMkE2km+7TXHBcWJslUO1noDCHbg4w3ixSbY/gsEsbkEI1MiPaROUwGK/uPHuXoU4x15TC644z0dtM1MExz4TBeq4/ItseQ0NHRWcuuE4TRiUl6Bwa3FIQzN+5z5PzVTRMl1dvbafSOUC2mqTUH6ahm8CkqwVSVoZFhIuEQPkUlX+9lsLezJQgd/SN01cu6IGwqCHaezqSYLRXINjpxKglSySSpUgPHKx6LYTuCkEgk1k27XK4tL/SV1+dWpsPh8Lr5fv/6zHlrDd9gMLQEIRAIvDAr5fyYdVcE4WW2K4QgUh3AZVydHpsZ3rL+sizRvTCFwREk5Lbg9Lq1eZKfjN9JLpeja3w/+VyOiNtIcWCe7u5u5up+1EwNt9nARHsId6KOVQgcaoag20xxeD/JZJK24UWMQuD0Bkkmk0yM9iGEiaGSHyFMLHSGcEdLlPMZMvkyWdWJMTmEVxJIdgWHJHD640wNNShU6gRcbgb7O7CbDXjDcbr6h0gmE0S9Fvr6mli2MfCQjo7ORnadIPgUleGxCTqbPZsKQqFWx6+GN8+k+PAjEvE4t588IZNMcOXLb/EpGb67s59QNMXDjy6jxBqc2ttLOJHj8dV5uhYvkUvEac6dJBuP6YKwDUHQIggdy/PcFDMRvYvhNfGqIgjjE72tz5JVoSvlfcbyEguD2ZYgyAYzLrOEkPwkHNoym0UQZutaJkGH2cRAzrVBEDJ98xhlGasrgBBWhjozyLKBwaE+hDAw1h5BSA4WOkM4wnkUpwWD0YzFJLcEYWX/3G4nZqdCR+8AmYgPt8+F3WZGWKK0xTx0t2tjHQyMj2xrjAEdHZ2N7DpByBVLnDh9ZtN5Z28+4PT1e8wfObXtVMuBTB+nepL4FJVjdx8TaZ6kJ6dFEh5fnef47Sd8/vkTPv/8cwrppC4IGwTBSVujk7ZGJ6VUELs3RKWtQcDjxGy1Eym0vRE50AXhJbDGaQut7n+03I3DtPm/atlopdE/glWWkG1+8nEVJZJHsQiEOcbkQANJrBeE8vB+ZmZmGMy7MZiseIM5kg6BI5zHLAQ2Xwyfw4RksDA0NkF7TkuTmyx3Mj7UQ6NdG3QrXu2hry3PcDmAEBK15iAjfQ1kITCEG7ieStNstdnwBaMMjY1gW+4uMdscdPUPM9jIEa8OEPAotKeVHb/R6ui8jew6QajVG1vO6+wf3pRnCYJfifPNZ1fJFtv56OZxlGidq0enKDWn+OTqPLWp00z1tJGrtaMEwzy5PL3jx2A38KYafV0Qns2rEASHmmqNcS+EIBSNbrmsbLBoYxasTMuG1kiHQqwZmtkXaX02WdYfV3k7I+W9NCZCqoLZsF507C7n8mcjjuWuBZP95a8dHZ33kV0nCC+DGoniU1SCkRg+RUWJxLV5aoRwNN4a2TEYiRMKR1AjEW29aJzQ8rqhaHzH67Eb2GkZ0AVB41V1Mejo6Oi8KO+UIOi8OnZaBnRB0NAFQUdHZ6fQBUFnU3ZaBnRB0HjfBMFkMmE2mzdlp/dNZ/dcC2t5W3IKvI3ogqCzKTstA7ogaLwPgrCSUc5sNuvDPets61p4mp3e33cVXRB0NmWnZUAXBI2dEAS7P9Z60NCdG8YsBO5EOzbTdvfFTE8puK1lyzOXGWjPts7PdhoC2WLB6zGRLjpa5WQ71DdybGL1MJGYbVvLmpzbExqD20GuGSES2foas8SCBHza8c82I2Qr2muqstVCrhkhkfhx8hTKaeUEc/5tr2MNeX/Eq6MyyZSVUGF729n0/NvspPJlnFsKgkQq78CfD+74q602xfHcZWKZrfO2rCU+kMVsWJmWcDpWIybhZ1wzz0MyGDCbtrjeogoGoQuCzhasbZhdapZKLoHZasfi8FFv9izPc1FudFPKpXRBeE3shCDkJy9hXX4DIDp2B4cQRLuP4Nt2RkIHF2YLz19OCnJ+OrPu/GxHEIwOO7GohcExn7auwU5tIIl9i8yQrwpXPYfdIBFopNe9FbIV/loC4zb3SZIM1OtbNyqVo1Vqff7lZSXaRuJr1pXp7t5eY/M01VEt2VhxLLPtdTyVxI9ogCW6u12UR5LbWn6r8+/PduF9hiD0DftJDhd2XBCye8vPPR4dw6EfUbaZtvKqDNbanT+iDA2j3YWqbH5/cbdrryi/VYKwkvege2j8xdYNRgls8n0432C4I7/j9dqNrDbMTrzO1VTLPjVMtNSO2WrHHy9it9txKWncDl0QXgevQxD6jtwnn8kwe+ISQgg++uYxkUwnx6fbMdoD9B2+RyaTI+C1Ex27Q3dnHyNH7uKzm2gs3qeQSnH+yW8RQnD81n1S+Qbnjk4hhMzFC0fJde/jwmwBW3KEqc4CvQduEHQaUYbv054OM3z5DzgkgRQcoOlf/Te0crN3+HJkQx6iqheHRyUScK1rCCSTEZfTQDKp3SjthQROu5NYRBOYrpk43kSAtpIFg8dNqc1LuB7H7zFgzaUJR2xU5jWByY5mcAVs5Lu1zJp9hzK4Qy7K5eXrTVpGCAJ9pXUNT6I/QyDkoDGXRgjB6OEMVreDersL2Wwi1pPGq9qx2mTkcJh81k6gGsNhlAh1ZQhGHHQcKi2XJ68XhDXbFUJieC5IcTy12jCsEQQh1gtCc28SXypIOW0i1B7BlomRTZjJVNwbyq5OZVHTXtpnNEHo2Z/CFfJSzVmQLFbKXQqBYoxQwIA1lySRdJAb1xrgRH8aj99K+7y27sipElaHheZUGGEyUR9QcUe8xKPaeYlGTAQS7m3/Vq1WK75ImYTiJq66sVqteNOdy4LgpFGIbOhiiCWsuOOaSMluL6mUjY7ZxPrjuvx54GAWi9NG/5SC7LBTqnsJFKMEvTKWTIJ40kFxWjvnhRHtHKfHtOum/0gWl+qhWnGs1jXqIxo2YfVYKS9WcAVsyEIQ6krjV2y0L+YRQtB9IIs75KZvPLThfGQGo1jKGeIRC5mEBYPdQrSZwmgQCEnCpbjpaHpw+bT7Uc9UDHdCoZbbKO+GRJJozEGiV5OyRE8ST8BOYyqBkA144wqpnBOXx4hst1NtKqjVOKrPsDsFQQlFCKih1md/MLSpIDzN88oNNE/Tpm78PlrqZrqntOP13o2sb5xXMymarfZVQUiU8EQKBJQUHuebFwSPx7PtRtxgMKy7kTid683bZts6bCxJUqvsfD7/wqyU82PWXRGEl9nu04Qqk1y88wlTww2EsPDk88csnb3Oo5tL2raeiiAoDieZoZP47Cbmbv8LS2evcfGz/4lJCCrDBzl8+hoPbp5ESE6mOiOsRBBi/ac5cvYaJ65/TiHiRhm+jU8SSPYQFiGQgoN0+TYKgtVqJ1+p01GIbquvOT+TRzIaqXb5EMJApbR6Lu3xIDbLmpDsRBuV4STt+6oYhMCdUemYzRJPa41zvC9NYyqN2y4hhESkGiRR08KtTwtCaVRrsBNDeSQhGJnSMkn2DGuJmdZGEORwWBv7wmDAJAuyY1qmx+BAZTkasV4Q1HKQZC2ISQiExUEpbiDUlcJieJ4gGGirar+VgREv7qxKYjBKvi9ING5FCBPJWpBESWuoq2NJTBYDpfEMQsgMLmapDCcZngwgZAOZnjiVkRSppIXggFb/lQhCea5MZTjpHbZGAAAgAElEQVRJ56L2/chJrSGy+ywISaIwmqF9IoV1izD20zgcq/Vf7VZwUqw2aGSDTwnC9p5ByM9UcC+PD2IPe0jWggTDmlj27NWk0KVYsChe2idSVEfTpNPW1rn2tac3EQSZkYPacRqcVtfUNYl1OZ352ghCbqZCZThJx/4KspDoHfSxNoKw9lwrHXFiUylSnUH8bm04aG85rgmCEGweQZDp799EvCx2GrM5Sl1a2nVX3E95KEH3vNaltzaCYFG8BHxGZIuZdNqKuz1P+2R2dwlCQA1z98FHBMNRbt97gD+4fv7Zmw/o6B9CjcY3EYQYd+9dotg5TkoNcebkEaqd45xd6KO49y59uSwBJcx3v/uMxsAcD4/2twThzKffoSoh7n76MeV6L2cXBui99AcundzH2Ydfo+yCY7OTgmCxOcm3uhEcxJYFwRcr4HQ68IRyuPQIwmvhVUUQ4s39qG7tX0ai1MBsMtE8/gSTkPn06hhGk4VcUrthZccv4LZbMcjShi6G4RMfYTWZCBW6EHKQU5NZDEY7ly6dQAgjBybqmB05LswWCLQfwGc14/DHsVsMLUFo7ZcxzeFu34ZGwR0pEw4GGRms4/LFSIc8z2wIuqZiOLxW2ia0Bqre7UU2mejtd2MJ+Ql4jFiDHkKqCV9vBZNRwhbUGlRf1IlskMgMpZCEQI1ZkQ0yA1Mbsy+6almcZhmlU+tiyI1kMBolCpOajD0tCL5qHItZRpLWCMJyWcnBHCajTHq2uvydRKPTjWzY+ES+MxfB47Xgz4Xwe7RGozaWWLOsRO+AtzXd0edDNpvp7nRgUrx0DPuJj+XwezYOL/x0F0PPgBfZIBMIGHEmwnhcMka7nVTSgqczj80sE+rWGs3cYAqDQcIZ1o7liiAIIZCMBtxeE7LRQK198+4Pt+XZv1Wr1UogXiakBJkYrmJ3uIiVe4kpAWxWFyMdqWdeF7LFRr7kpjmxeSh/RRCEEJi8LoKKGYPFhN0m427ksZtkIv1ZJCHIDKcxGiRKM5rYDU34kQ0yfsW8rq7lqiY5mbkyhuXzkRzIYjRIOMNaI943E0Y2GmmObdwvSzxEY9hLciyPzSIhyRL+agKzWV6WUxONNnvrXG8QBKOhJRNm1YvRKOFuy2CSZGpDKpIsUZnUzrXB7iQSNiHLWv1jMStmj4t41KRFECRpdwmCT9EiB3fuPSCghjfMO3vzAbOHjtHe3b+JIITYd+Yqxw7M4FdUqn2T7D+0xN0Li0QnbtCmqvjzExzr1Mq9/d1XREvdXL1xh6sTBXzJDh7fPMehpSM8uXWS3kt/IKSoZCYuUgy++eOw06yNHiTSWRLpLFHVRyCmfU4kU5itTsKJNCE1qD+D8Jp4VYKglofxOzRBsPnTDE8vUitq/0Id0TaGJ2bx2JbDlGYvQ9OLVFI+XKkeTELgilawmmQMVi99EwsUU9q/kmzHKP0DvTTaa9qNsWOMjkqORk5rLOuDc3Q360hCYE/2YH1qv8bPfUZbNrKuUXihp9VlA4qi7bc75tG2E/KQqARazwkoeYVYbuUflkS0EkSNaGWZPQ5S7SH8Ae38uuI+Um3B1j/BpwmXV9eVLWYSNRW3SztHyYwWuYgml69Vo4lEm0rAb0RyOrGukSPJZCReU/F5V8+vP6uQqm98uNMdXx43w2jE59UEwep3kqqHcC43st5MgFQ9iCyt1N+vNShGE6GQCUfMv+ZBt1WCKe24BJbH5rAE3CSqCkZJIGSZaDVIMGTB4zEghESsFsSf8LXqH6+p+HzaPiXb1kf0AjmFVE3BtMVzGL8dMT7zt/qybzEEStrDitaQD/Mm+xDNr48i+jMB4sWVBzAl4rUgkW5NECSziURbENdyNMLkc5GoKZiXI20rdTUun2ODw06qHkKWtHMdq6r4A9p1alHcxIs+IslNnjkxWwn5ZdxJPwZJ4MmppNpDpNpDuO3L56wYJFnUjnUwZNb2Na5FFaLjJewr51kyEm9Tiaa1ejpCHpLVAIHkyjgsEpGKSjKlHT9fOkA8r5VrCfnfvocUt9PFoCYGWBzo5PJiLz41wc0Li4SGr9IeUvGF2vj8RDc+JcQ339wgWurmxHQ3Bx9+R0gt8PHZ1WcbVgQhPXHhPReE3cPLNpLvsyDsZiwWc+sY6685vh8YbRKLoa3zF+yW1xxXuhh2+nhtl+75rdOo/xjeKkF4NmEm9x/n8vnjBBSV6cNnOLR3nOnpIXxKggtXLpOKhUg2Jrhw/jSRUIhQpkp3NYM/lGZuqE68NsjFK1foruWo7r1CUFGJde0lrQvCruBlL3ZdEHY/RqMRk8m0KTu9bzpvlq2ug6fREyVtTqgeIVAMkhzKkBzKECgGCdUj+HIBEgNpksNZ7bv2CN60n0S/9p1SVgk3ongS3ndJEHReJTstA7ogaLxvgqCjo7N70AVBZ1N2WgZ0QdDQBUFHR2en0AVBZ1N2WgZ0QdDQBUFHR2en0AVBZ1N2WgZ0QdDQBUFHR2en0AVBZ1PWNszBZIlKXkuU5PBFqDd7MVvtWOwectUu4n5dEF4XuiDo6OjsFO+MIEQSacb27mdocu7ZywbDtJWy5HpmCD81LxCO73g9dgurDbMDh93ZyqTo9PhamRRtTi9mW0gXhNeILgg6Ojo7xVslCKFojLZGx6bzUrnipjkSekcn1y3nD8U5t9C/aRmNpY+JPGcfbl5b3PHj8GYFQZOEzVIta7xfgtDZ2fnCrJTxY9ZdEYSX2a6Ojo7Oj+GtEgSfojIxPUNP/8CWgtDW2cv+E+c2CII/kuHKjZucP3eWcwv9dJ54QkRRmT18hotXbjLdU2oJQvfMEc5dvMz+8U6UdAe3blzl0sl95EeO8LvvPmWys7jjx+FNCoLN4aFQSGOzO7DYXcTLDWwOF2abA5szQjLofm8E4U2jRxB0dHR2irdOEELRGBevXNtSEPzBEIMTsxsEoX3yDO3ZSCuCsCIIPkWlc2iaB1cO0Vj6mKia4soxbZ0jF65z6uHn+Nds5+Pr718Ewe0L4PYFcLmcODzaZ7fXj8Xhbs2z2nRBeB3ogqCjo7NTvFWCEAxHOX/p8qbzntfF0Jg+Tz0bwR9KrApCMMGtq0fwBSPcvHpEE4RQmmsnplrlnnz4+bqhoj++vn/Hj8ObFoTdwste7Log6Ojo6Gyft0oQXgYlVuDG7TucOnWC0wt9dB7/nIgS4dyNO5w4fpSrl5ZIDp7gQG+W3rljXL56hX2TfQQzndy+dZ2LZw7iV1TO3H3EfH9lx+ujC8KLowuCjo6OzvZ5bwRB58Ww2BxYbI4dlwJdEHRB0NHR2RneGkHgT/5EZwdo7vkQyy6QA10QdHR0dN4sb40g/O8//T/wK8FnoOq8FOuPp93h5Njf/j3Dez7cNZGEl73YdUHQ0dHR2T5/8sGeALudn+wJ8P/9pz/ll8YAfyEF+LnQed1YbA6O/u3fMfybD7HadUF4FwSh2j+ybnpsdmTT5WLVDmQhMJodKIpCIOBHEgJ/dYLp6WkWDx5genqafVODCCEwOvxMjY8wNDTE0NAQk/MHtHLKXczMzDA3OsD49AwHlw4xMzOFLAki+Ya2DbufyYEG0vK2I6UmPouBvsFBpvcdYHBwkETAgZAkJElCssaIWkz0DQ5gkJ81zK+E1+vF6/UyvXeg9VkWAmswg8si4/Z4qPUO4PF4sFtN2MMVUl4L5e5RRocH6ajXUL0OjBYPC3tnmJlZZe++Axh24HrQ0XmTvFWC8NfGAD/7UJv+yYc6rxOz1c6Rv/lbhvd8SCJbpJhNYLba8UWyVDu7MVvt2Lxhcrk8+XLljXRDvOzF/l4LgmxmuFlYnTarNBMbj6ktkGZiZprOjg4y6RIWSeBINjELTRDaajXG985Sq9UYH+lHCE0QOqo5kskkyWSStuG92r7bFYrVbjwWmWK1nX37p2iUU0hWhcGJWdKxGP2NHMJgpb+/q9XgmmWBGkvQNTFHIpHAapQI5woUCgUKlW76asuf89Fn1lm2hajX6yxMDlCv18mGvQghqHX1016JY3IoRN0mepdFRwiB02mm2j1IR6NBo9Ego7owWjykfMZ1Zfsq47og6LzzvFWC8AtDgD/78NnL/rI4wYcHH/LfGvt2fL/fZiw2B0d+/bcM/2YPVruL3LIgmK1PZ1K0440Vce5AHgRJetY/yI28z4Lg8GdI+C2t6dzAbOtf+3pk6uUMkr9OMrFREA4fPsyRI0c4fPgwS3NDz9xm5+gCx44d4+jBWUbqSZozvbQ32hBCMH7gMPmod93yspAwOxNEpM33a7i7gLDE2DtSJl7rxfrMCILA5K2wMD/P/DJD1bh2HQQzuKx2jh492mJmqE7/9D7m+5LUO9qppTyYPRGiHktLEKabCYSQaZZjuiDovBe8U4LwD5OXEEuPW+zZf58PPlRa838d6eXDVA8/faqMvwwOYSxNYCxNYMgNbijXOv0FP93mvv7UnEEUxvgbT+q5y/5ZYAF3JMcvIyP8tRzc8eP8YwTB7o2Qjr+Z1yJf9mJ/FYKQyWRemJUyfsy6K4LwMtsVQlAdnMTYmjYyM1zZvK5GK81ahtr4DP74GkGQzKTSWrlD0xOtbbhNMkJIpOIqQlYJ29Y32s3FKbKlHANtSbpnejRBMProbu/AbnJQ9ZspFRO0D/Vo65jDRCRBW3OAcDhMKlfHY9TKsjg8xIvd5CJFihFXaxtbiaLJW6bZXqder1OvN+itaILQPzJB1K/QOzDGYG+TsflD1ItphBDM9aXpqBeQ7VEWZ0e0bpBlQZgd6SSVSjNQ1QVB5/3grRCEP/vw+YLwM1sasfSY3wwcYc/YKT6cvYJYesxfxXs1CQgM4ci28xe2LH9tC/MTS4XY3jvY0zV+IsL83NVDuNTGz+QQH+wJ4Bm5jNIxvk4QAnPX+GBPAGPzNLHBeT7YoxCqdaBO30QEM3wgwuTnTvFfzHH+q9LOB3sC/IUyTnL2Av9FDvJTS4EPk73k9t/hr+QAocWvqO2/xS9i0/ylFOTPnQ3S++5RPPSAPelp/tKo8nNHlT1Kmr/vvMY/Vo7wa3uUv47Nkpo+/cYEweXxUShkcDgc2JxekpUGDpcHmzdMPh3H6fbqXQyviVcTQZCZ6MmuHgclTdK79bGwBDIc2jdCIL4+giCEoNTRx8DEEO39Q9iXG27Z6mHvZDdCVinFggSDQSyyNq+5OIUQgnDAzVRviqDiRzK5Ws8gtBUUPL4oWd/y/pjDNOs9dA9N02w26e0fxmMUGGwKI0M9OFxJIkaJSnMAh0ETg76pfXg2iTqYvBWG+/ro6+ujr2+A/rURBItMqmOU9kKSvUO51nFaGK0SjaeoZcMYzE7KCUXvYtB5b3l7BOFP/5RfGLcWhJ87c4ilx/xjog1x+GM+PPgQsfSYXxa0Rv4DQ4a2U5/yj/4MP1le5yciRGjxrjbf2kkoV+aDPQEMQ3f4+Z4Afx4YwhUvYZ3+gr8rHecfrCq/Suzjbx0RfmZrYA4laR47xwd7FIr7z/Ez115MSmh1v0SJzrEePtij0HbqBj+311AqHXywRyXR3cufp07w30WAX+WP8dcGlegBbV8aF6/x6+IxfmEO8ReeLqzxAmLmn/g7c4APpArJWokP9iSodBZfvyDs+RCr3bkrXnV82Yv9fRUES7ybkHl1utQzhGnTML7A7I4x2MgghIwvksdhNuFONjCZPIz1ad0D1QHt3743WqTotzAw2ocQEpXOfuYXFti3bx9TIx3IJisD+8aQDBYGx4YRQmagvwMhBOFcnXi1pxX+n5+fJyALPOlOVKugUm8ghMAfyuMyChxuJ7LJghKroi7LRywTQQhBqtG/oR6SK8nCwsIGagEJX6KE02IknMgzMdLL0OwCqtNIo6uKJJvoGZ5oLT83M4jB4mH/4vpyFvfrDynqvPu8PYLwnAjCT+QQHx7+GLH0iD19B/lw4RYfHn7ET23rQ/1/pfSR7Bvj7xvnsRYGUBc/2iAI/vmH2nfGCvF6B9b53xObuclvnGH+oXEFb+c8tvZ5/saVoGtxkQ/2BMgdvMRPrUM4E+nV7TmGUCNa10Hi5BN+bq/hypT5YI9CemBkgyB82HWZQP8JPNkSvy48JQhT3/OzPQF+4t1Lqn8BW/s8lkT+9QvCb/bogiDebkHQ0dHR+TG8M4LwwZ4Af+4p8+HhR61nEP4y0tWa9+vsEcI9c/yP4kGC1Q7Uk9/z33wN2i9/v0EQ/iKyQKqjH9fEA35tD2Od0boYKpee8DNnJ/nRBX6l9vILWVknCB/sUUgd+wIR6yRx4CN+tkeh+/o3/F1ikuLA0HMFIbDwmL92ZPi5CPDn6iTRtgFCB56sE4QP9gTpOPOAX/nq/IP59R3z9YLg0AVBFwQdHZ33jHdKEN52QjPacwW/Kl3h7y07uy+6IKxHFwQdHZ33jbdOEJ5+A+Fdwtx3kcy+24T69vJnO70v1uU8CLogIIQuCDo6Ou8fb40g/O//9Kc4fuPA9A8O5P+u87pJy0au/Oq/tjIp6oLwdguC0aAlINp2fR0BQs6dv0HtFO97/V8EyWAhFVMRQpBLhXZ8f7aHgVixHSEEtUoaeeV72UQqpqwu50zgcTz7viEZrXg9rtewjzvPWzMWw8e//hse6bwxHvzylzz45a9Imi16qmXx9guCzyOTtK1OX+szcavLiHuz1wMDVY7N9S1PG+jp81CdSCOEwB5VaBtNUh8IIoSg/2CBynCScsOHcHiojGbomU1T6FKQ3U4qk0U6xpNYzAKjz0vbWJLGiNaIdB5uQxKC8nACIQS5kQyVsQyqR0YImd5xleR4efXm/UqQWTp7g0eXZ7ZcZm39JXuCc1dvcurydcyGp/MtSNy6egAhjJw9e2RDOT3zF7j05X9sSEjVfuHfXnGdtHpV2yutzxcffMnhMzfYP937yq/JUHl9mSfvfYTdJCOEwJ8dZK4v/6PKdaptJAJaMq949yEWOxMEG2eZ6M5tsryDfb0rmTRlHl0YfG75qfErrTdPZi59jOLQXl01uhKcPntwtX6VaSbq4dY5rs/dIhvY+vc/fft3BNyOV36cdwNvjSD4lCC+Zw7WpPMqsTmc2BxOrHYn5bY2CrkkZqudUKZGqb0Ls9WOxeHBHwxRbTRemxR4vH5MJtM6fuzF/r4Kgits4F+nzLS7tGmLUfB/dhuwGjdfvnvpFqY10YauTgfFgRhCCDIj2s06PFZDEoK+CU0UMqPLiZksdnLJ1YyNkj+M4tA+R0cqSEKgDFWRhKB9OEUqKLUEodHj0fbXo924u/r9RPo3b2zs4TZufPJbKjHtn1t+6grnThzi4v4m9kiVYtSDbPIyXA8jhIGlG19yeO/A8vpGbp+bbpUVHzzDnc9+Syni2VB/te8iLqGNGWE2SBhsChcefstEZ4zNBKE6dZHrd261GqLamX9rCYLBqnL14y8ZvPzvyELgTPZw85NvSSk2hBCcvXySK4++Jmzd/LwsXP6cyZH9dIdkhMHNybvfMjdSRwiZe1/8kc//6X9y/8kPCNnNsYUuhJA4cvkGQgh6D93i0qUTWllmL+c/+i19AweIOAT7Hn6GEIKJc9qyweIItz/5ioBF2+7kmUfcevAQs0Gi6/g3fPL7/+D+F3+gGjYiXE1G0+t/k8fv39v8WraqXP34K/qPf460pv5Z1Y4UGOLhN//Oo6//yJ2LY8S7D3PhwSmmbj9msjuHEEZO3v2amb4iQrZy9ck/88UP/8q9jx9iEjKPr+7j2sdf4LcaEUJicOkOV66eXxYxGxc++o7xYw+082IOcWistG7fijPXcK75PVz54uHqfNnM8aXxLX9fo5e/3yIr6dvPWyQI2ySZw1fuxJcu7vy+vMVYrPY13QpO8suCYLauz6QYKXUQDiqvVRC2ung9Hs+66Wc14gaDYZ0gOJ3OdfNtNtuW60qS9FYLghACv0emx6N9Drkk/rXPQMwltRqytfUfPX0LwxZ5ErKjmiCERjVB6J9PoGb9NMa0nATPFIRR7R9uYLCKLASN4TCN+XhLEJS2OI2p5JbisorEsfMXEUIwff4RkjBw7+wAQnJx//QQzngntaQP2exnuhnHHuvAIgSZyWvL9V0vCJ9+ewu7zYLLaduk/hZO3nrCwX0zyJIgmOvEIASDt/4nkpC488UfuHjnMz66fhQhzBwaLSCEg0vzWgO0VhC6z/8RkxAM3P53ZCFz4cIxhBAcPncJIQQ3bi4hhODuR0c31NnevEPcKlAGrhKWBbPnbyMLQXPpPlYhMDpUJpsphBDIrjinDi/SMXyYie48tspxsnYJZ2U/EVnQc/gOVlnQceIbHJLg0ZNzCCG4ePs8ktnFobkehJA4c7gPSRlgtqJgMNmwGCSEkDh18czq+Y3O0O5dH1mZv/Pppuet88wfMAtBz5U/rKv//mUx8SaHKEW1SGG8+wjpgTMsDJSZ7s5RPPbPmIUgN/+RlhFUcnN172qCq8e35xDCzt1Tg9jVMj1FFYNZZboZI7v4OVYhKM7d1M6/M81sZ2rdvqX6T+NbI2bHnnyzOl8ycuz04ib3CiOlRg/Hrt3ekXvDm+DdEoTBvQROPSJw+jGB04/xz556JeVOnv0Y5ceuH84QVFR8SpJ7ZydId00T3unjtA3WN9SOLQXBbLXji5Ve21gMK4LgcrlwuV6un+9VRBBWRgV8EVbK+DHrrgjCy2xXiPWCIITgj13ylnUdOrl9QeibCmE0r5GYFxQEVzlFfSiOEBImo0BIMgOzweecD5kT1z+ms2+ErmYTIUzcWaojhIW7J1cEwb8sCDHyc7fp7x9i4sxnmwqCxRenPrCXswcGNtTf4vQhhMBTmiHntdF//AHN3iEOPvxfSE9HECQHC71xhDBw9ZCW6GmtIPRf+mctcnLh35CFgYs3bmt16KghhODa1X1b1rnr2n8gC0HXySdIQubk9fvL9e9ECIFNGaIe0467M9JBez7C5d/+FiEE9ZNf09U3Qlf/KLIQLF68gxCCudvfIoSdO0vtCGHj/JERLO4Ch/fP0tk3QjbmQQiZRKHOoaufYjNJCMnB8aWJ1fMbHKeprBeE/XcfbVqH5rk/YhSCzvO/X1//Tu1ZgKcFIeAwYHCEmO7OUT/3b606GITYIAhaF4OJ+2dHcUTqtKd9yCYne/vTlA59hSzWdDHYE8x3r09Fnhk6h3dNMrHTXzxZnS8ZOXZyfpM6SVjtDiavfPcauox2B++OIMRSBM58gu/EQ+RYEdfMKW261I5PUQlmO3l4+Sj9kwfYN1jBp4QIRRMEQ2HUVIlSc4qri8MUSiV8iooajaOGI/gUldkrX6Asf+dTVIKRGKFIFJ+iEgqHCUXjKGoIfzjJxQP9+BSVQvMQXfkwsZGrtCcSrWULY8eJ7/SxekFB8PpVSuU8HrcLp1chXe3A6wvgDmWIhlWytQbW1xhBMBpX09za7fYXHqRphfe1i8HvlZkpGDlTkMkt/0t6liCEmkdJuSybzvNVEqRLfvqXtNTNK10MLdYIgmQxo7alyJW8GA0CayJKrhqg76jWbdAYDiNbzAzvSyKEoHd/lkg1Sq2w+bb3PfwP8mE3QghGTj2gUmnnws3rCCG4++33NEb38+jMEMIa4vLlMwyd+IKsR6Z54Xuq+TwHb/6uFTG5+vhT6p29OEwSn/72a2pdo1w7Ob6h/q7yfo7OT3Dg+le4LAbm7/5AJlPi6hf/10ZBEIJrDx/Ss3CLgbh2vQRHP2akr59k0EWo/wbTw4Nc/UJr7OevPqZY7uDcmUPauk8JQv7AF1w5UNeuv9Q+Pv3tP3Pp8y8QQuLojUcU2gY5taQN2e3KH2Z2fIiQy0yobYmwUyI8+SkxiyA99xFd7R1cuHMTIQQH7v+O9p5Zbj6+gRAmHn3xmKGDNyiG3ZgcUY4f2svIma8JmQRdxx7R7Ozm5N1HWvZNk59LV89Raz3vYOP6mdHV/ZadXLuwWo/q6X/h2GRRq4OnxCc//C/23/y3dfU/f1Hr+rCHahxcnKOW9m0QBHP2MFMD3Ry9/91y2SY+/ugqbW1VnhYE6f9v70zfmkj6hf0HVWffQyedzh4SCJAEAoQAIpsIKIqyCG5ssisqioPr6IyjzvY8X877nussf9l9PnQIRmDGcQtqf7ivK5Xqql7Tdae6+lf2AGvrN+idfUyTYsLWMM3lsQGubP9ZFsSN24sVx3py60m5kZeMNdxdOlXOM7ubShN1Hf57Gbn16si8r51vRxCSjfgXHmNMZPEvPC7j6xpBVlRC6Q62bswSDWnLJzpO05huYOuH26XyRRYGc8iKSm54jpHOZk6Mz3Myl+Ls+nMS2X7mR1qJ5fqYOFUkP3CJ7oYYr188IJdt4fGdq4cKQt25HfLxGLIS4unSwFcpCNVGCQQxm8243e6PauS/V0H4ELourtHo/zARqx5aD8K3uP9Ghx8lmGBjffoT1Wng1kL/J6lLrutjtCeDEILZxRs4LEfIp2TEr4Y4f//fVX9mb/E1MHtNe5QzuXKHaE3p9220MTs/h7k0IFXytzJ1cfgv68pP7TJ8srXq18jn4NsRhL0ehKv3MNXm8JxbLPUgtJWXCUQSDM1uMjPUhj9ZZPfeBneePD0gCFfvPNC+i+RYv9jJ2c03/Pjrn0SCQTonbvPm9StevX7DZF+O19uTyIrK9s4qvlCC1amTmiB0XqJQHyQ6eo+mgKoLwkfi8wc+qoEXQheE7wG38/Deh68dk0PGK/swHXiT4kORcNpMn6iu90Qy4JX9uL7Bc2QwHN0j9zXz7QiCoiL3X9TGH+z1HpxfKufFGtvJpOuJpDJsXhtl7eefCYbjLO08OiAInZPr5OtryfReYKStgbObPxNVY/y8M0t98TxDnVnUaC2BQPAtQVhDDoS5v71CJJbg4vouiaCK2rtOR/KtHoTBqyTVY3CsvjJBsNj01xx1dHR0viTfliAoKnKqCTnfg1yfq/w+EKbQM8BAfy+BgEog2UJ//0myhWEld6wAABOwSURBVE4tP5SkpT5eXr69Z4DO9hZkRSVd6MOnqCTa+gkqKs0dJ+nr7UFVVfq6mpEVlWJ3B7KiEk5lGRgaIttQW6orQv/gIAE1yIm2NL5IPT3NieofJ10Q/hG6IOjo6HxvfHuCoPNJqLYM6IKgoQuCjo5OtdAFQedQqi0DuiBo6ILwaXCqTfhdn+gcGuz0nb9U9X36rig947e594My+QL759OlWBAmE8b3DCduNEoYnXYMQmB5N+6GZMRuOT4DVP8Oj39vTIcBh3V/u+2e/TEmrvDBV8QlixWjyXjkK81C6IKgcwTVlgFdEPZuZNUVBIOvyI25GS7fKr0H/zfLh9vG8Tk/z+A3f6CbmqNGyP8NZqcfu+WIYylF6G3Sgm7JDX2cXXyMw3z0cZ+6+QBbKbSw0t2AzesmEv72Bt4dJySrndpaG64GLbxyKF1D16CMsFgJBa20T0XxNkTovNBA8XwKsxC0XYjiSQZwOqzU19pJDsS0+sxWkgk7gUIKgxAkTqWRhMCoKhTHGyheaKJnspHieAPNbV6EwUDxYiOdbzOmRRZtGEmTyIfItHgRQqJwKkIsH6El78IV9hIrJGlqVfDJZsyKl9zZBhI5P0IIavvqSDSrNHdq6f5L2uu//f1ehMVK+1CU+r46vC4Jq9eGO1xDMu7AKTvI9YVwytr9rKlLe9VYbYmQHdkPAGVR/AT8JuweK+nReuweKwYhMJoNmMwG7CEVt91EuDN55OBXXRB0DmW/YXaSyWbKgZJCdTnqm9vL+a5gI373l5mr4WNvMrog/HOU7lVibiuSyYpBEly5cx9JCAIDOwQtgvyFW9zcfclwVyNSYIh7P/0Hd5+85sp4O8LsZf72U+bnr2EyCBZ/fsqNtTWu3n6B7ZB/LaFwP9f6b9EqOxGmEKejKsLgZDSdIdywwtrZZywM3qZDfjfctpHdOwss3HlGU9CF5E1xeWaJ1XvPiNdYceRmufPs32Rj2r+o8ZVnzKztculcN8KVZuvR7zx88Ss3V7VoeeET18uCEO7bYGByg5W1G9o/LbPM5FBzed2elhQmlwNV0UL8+iJufBE3Hq8Jo8NaTptNEja/q5wWQuAJamlZ1SLz7eXVyCYMNks5bbMZsPj2y0pC4FZLZYOOirKy34JkMpbTDocBs9dRUdYRKJUNafMHyOFSWrEiDIbysi6XEZPLXk4bDQK7Ulo2rEUi9YZK6YDtk+2/7DMf2H+HbEVIEpIkaG22k2hRyoIQVC20T0epKwTwtSWxm7Vz0zCcIj9cRyBgpziZoXVYEwRXLEDbmTr6rmZoO1NH25k66rPaNkX765HMdqKyCSUXPTDBmdFuJTO4HxOha1BrnJsHtWBfmax2TDumtTghwhtAde6Xj3bVYirV2T6oRR9tHEwihKA4GKHGZaC/34vJ5yGkWkr3AIHJV0P+VAJJCHqn0hTO1dM7GkBIEq3DMeSmCLUNHryqk+bTtZgtJrxBJ2aLCbffTuPZNG6/HZtFYLSakCSB2R/Aa5cQRhMmgzj0XOuCoHMolY3zEZEU7TVk66N4gokvMtvjuw1KPF4ZvOSvIi1ardYKQQiFQhX5Pl9lSOe3gzEZjcbvVhCEMNFzfpEb62uYDIJE93UiXjObP2nR8jZ/fEpQkcvHJ1a8hFLqBg51XcMqBN66PuqCbuae3aVj8hrGwChp57vrkbhc6EYIiY3efizeFprcLkzWAJ0hbXKngY6FI96fN3JveQAhjOysjiJ5U4y2pRAGC+eHtIiGnnj3viAs38cgBIPrv2r1GeKcbpbL9b0rCG5JEOqYQXaaEbYA53uajjxeZpsJs82EySQhGQ3ltCQJDGZjOS2EwGTVPptLvSLlsmYJYZDKaYNBIL1T1mgtpa3GirJms4SQ9ssajQLJ9E5ZyxFl39kOo7FyH4QQGPbK2ox/vQ//ZP+thoP78M7+G51OXDYjTR0Rgg6xLwhC4GsK0j6WoulkjKaTcRSXQFjtNJ2MkRlIUTidIDtUR2G4thzVU5hs9E7Vk+2Pky2F+lZbQmQGUuT6kxSGEhTO19HUU3mfyI5V3nPeFYTu8RTZwRR1qdK95h8IQr7NS33Wo/UgCIGaDdF2JoXVJAikZPLnkhT6VfLNDlKtMsVBP8JspedCHRG/GYPBiNUk4Qho17nk8uOUBPF8iFQhRKqgbatkNpPrUjD7A+TaA+SHIkhCHHquvy1BSDZVvOYoZwpfcP0xfvr9X3Qkg5+l/tpE9NgJgprMYLc7UJLN2PUehM9CtQXBpWhdqbZEP1nZgbCHmRqZZDK/fz6s3gRbm1o0vLcFIdozh6Ko+BQVs9HwN4LgZzTmQwgPV9JB1MgQfqsZh6uFVCmq4fnuySO208j2Qg9CGNjZGEPypjjdUhlrv0IQlrYxCEHfyvsJgl0IgoVpZKcFYfFzcSB7xHaYOLXYyqnFVjq6PLgbouW0v8ZE7Ey+nDYKiY5ZLT04lUQIYznv5EANjlignI7HrISG98uahCA/XSo724AkDOW8gTMBLDWecjrd4MDf1VBOm4Wg8UKp7LUMBmGgf15LD5wLY7TZy8s2513U5JPltMtmIHWuVHa+BYOQOHGtVPZC7MP3fzpVsf8Dw74D+y+EIByz4G1J4jJUCkJiQGuc6/NehOQgUgopHu2uR6nRzqPR4aB9KFoWzMazaepHtOPe1f3WHwtJIjuQoq61Frfl4DnOjEYr0kf1IJT5J4KQd5Luj9Hf78VoMWOQtGik9WmtzvqBKB63WROEthqKg368dSot3QGE0UhYNRMPmMl0luaocWiCULzQQPvZerqm35r4zGjh5PVm/KkgDpP2Z+iwc/3tCEIwgn/+Ib75RzgHpqm5tIV//hFyvA5ZUfFF6ljbvMna2hqd2Vr8bZdpOyQeQSCZ49JA24HvL62v4v+L9Qc7Z+gOvv/2RloGONPe9J7LB/l9a6RKguCkNpUm35onFpRRYvVk2jpJJFNYHW4cLg/BuhZdED4T1RYEW6Sb+aVVrq3fxVa6kczc+6Mcsnhq8yEXLi8zU5op0RkrcnVxjf58CIMrwbVr80wv3sJrMx4iCGaevPmzFOLWzGzvEmPFazgkgc3dwERhmvOFi+UQuOO9Gwzn90Lgmtj9/b+0iXuEkYf3Nhm/foeBjHJAEMJdl5hdecTSygbFmOGgIAgLy1t3GT+lRcOzhgrML6wycrr3oCAIiSu3tkvr1flSGGr8eOwmMnkvzaMRbC5zWRDcURc2tYb2sQQGYcRVGgOTHKtHuN14PQ4ibkGy1BsQK8bxuoxYfB56LzdhKz2SsHidNA9Eyo8YAi1RwrHKSdzeFYTYiSRNJ+Ok6p38nSDYogHaJzJkSjOjhtrjNPXESee08OH5vBNrLEh/vxeDzUb+VILsYBK3Q/vd1fdrQuEK1pDK+XA5tXvD3hgEp9uINRDAuvf4zh2gtSdE20CEWFahaTiJEIJ4V5xowo7Zr+AwCMLFWoLhw++N344glEItm+ra8M09xDe3qwVL6jyNrKgkWk9xoWc/NsKJ2R3GT54gpIb49+vnjI6e59n2bFkQulf/YPXGVbYeP0cJxrj9+BHdJ4r44xluLV5iYmmbdDjI8+2bTIwO0jG+xuTJE8TyA0ydH2XjwS4hReX+Ty8ZPnOR5lSczKk5Js4M8/zpUlkQhjZ+Y/7KFC/e/MTy4iw7T7XATSu7r5kaG+Hek4eEqioIx4ePvcnogvApMHNjeeYYbMfb7PUgfJn1GSxuzs2tH4P9/n5wxL04FHf5LQV3UqUt78TkctLcF8HlNuFNBymM1dM+rD2rDxTCOFU3dpuVUNBGqFGbwMxgkgi1hpB9FoQk4Yn5qGv2YnaUxraYrKge7Xdn3XvzRTJRGG8gV5S/6H7vUdOWItfpwxoNEApZEUKirlcThmSLjMVjwymXqLEiCYE1EcAgCTJZJ0a7jY4xbc4TySCwJUIUz9eXRddoPnzw77cjCPF6/AuPcQ5O4zm3hGesFGq59WR5mdaBCX766RnZZJTw4FqpB2G/8b386CVqWRD+JKiopE6v0BhQmb+7hV9RKYwtc6I9T0vHSSZ6s7y+N42sqIS7Z+lUVeRAmFyxj8WtR7S09LN8IlJe/+7LXTLNLYxs/kZ0TxDWXhJQVPo2f8evqJy4so1fUVm9dROfooVs7s7EdUHQBUFHR0fni/LtCIKi4ptcr5yo6doOckAbE6CE49ojAjXC3RsXCPat0B6sFITbL358qwdBE4Tk6WUaAypzdzRByA9dJ5vca/T3Qy3vCULX+BKpaIjm04u0NHbw+FJreftuP3+Er/Q58o4g9K5rgtB9uVIQCuc3aEmGdUHQBUFHR0fni/JNCYKsqMgnRvBf/wHf4ETl96Fath6/5M9XT0iEVGSlljf/+oNcMsyfD+b45c1rWlKxIwWhoXeSP988Q1aCXL35kDfPd6kNhw4IQjBd5I/fXzF6epKWWpWm4Xl++/UlTYkoSrSRp7/8xvbi+b8XhNs77P78G1dG2pEVlSe//l6WC10QPgxdEHR0dHTen29PEP4xX/75/vuw14NQrfVXWwZ0QdDQBUFHR6da6IKgqLRmU1XfhndpyOSquv5qy4AuCBq6IHwiJAvjy/cRQpAbvkHS9/HXk47Ot44uCDqH8nbDbHV4cLvdpbQTd41P++zw4JH9ePbSuiB8cqotCJb4GaZHTnBm+Qlu67sjnSUe3F0g2VRk/cZRMQrexsiV+Q+cw0AKcLYQfM/lTSwvTlR8V7zyBK95P31q4xf9VUUdnb9BFwSdQ9lvmF0kE/FyoKRgbQO12TYsNgfOQC1erxe7060Lwmei2oLgab1Oe7wGYTAhCUGweYyZ68usrF1DCImdjXMIIZi9fRchBDPrO0wv/0BaNqEWr2ATAjk9SDLo4vTlFe4/e8nE1WWsQtAxvsq56QVGTmqhi3ee7DA4vsC5YuTAdkiBc8xOXeLGg5dYhCCQG+HK9Rtc2fgBj0nQNLrK1PUN5ia6EGaFmTPtGGwRLl3oQwjB4vZqZX3qEB3KfrTM/zltKsdb0NHR0dAFQedQKhvnwyMpugJJ6uMRUrn2qgRKamlpqUj7/f4jL3Sn01khCPX19RX50WhlABSDYf/fstls/m4FQQhBMHuKey9eYTEKDEYtCE1x7f8hCYkffv1vnvz6nwy1JxHCwWhHBCFMbEy3HhCEyh4EIzfmtLkPJhfWkYRgc1NLz69eOLANyvALfAaB/8QasiSYXNbK9M09xCQk7q2PIoTAardi8jVwOl/HnZc/liPnrdxdqKyzpoeeyP45/qsZ7XR0vle+KkHItBbItBYIRROfpL7aTL6qAwGPM+8jCFaH1nPgUetwO/QehM9BtQUhmO3RJvhJDdIkO5i6+wyv203fzf+PVOpB8Nb2U0wrCGHjbGccISysTzSjtM/gFgJ/0zC1ASdCGLn6tiAsXcbl9uLza/NgbG5UioFk9eIqPdbof/C/SELQtfAMSZi5tjCLEILZrW2EpLIwGEZINmKKA7mun45cmgePlst1zd+7WXlcY+fIe/d7EBzvTvmro6Nz/ARhcGj4yLzFrR0Wt3aY29zm/Oz1Mh+6rlS29S/DJ3/PvP2Iobm1QKHYRWMiQLSxnbbOHnLNLVidMk3NbTQ2pvVHDJ+JaguC0RVn+d4LbqwsYjIIMsPLrN6+z9m3BEFIZpbubCKEYHjuARv3H+OzSgiTm6V7L1hcmsNU+ofeM7PN1qNfkIQg0TXB+v0f6StoMeLfFYRg7yYzvdrkOLf+9Yq5O88525tDCMHAtV3mF66wsjqJEAYu333J6q3beKxGanvmUR0S6olbpH1aj0f69E3S6l4YXBNzuz9VPFJ41Vn9nhodnePGsROEYCTKzdt3jxSEKys3OTU2UZaFxa2dcv7olQ1+fLRDLKhS1zXG859f0Jmtpbj4CwNTa1xae0CdqiKrDdydKHBh4wkBRaVtdI7nz5/RlIii1ubYffaCmf5s1Y/F8RCE48PHXuy6IHzfpHu0Rxh1xREsxv3eA4PLSJ+7+tuno3PcOHaCICsq07NXaMw2HyoIufZOlFDkoCAEYty+u0pIVZGDaW7NDiArQZaWFyguviIXVZHVRh5MNJPunSKTiGiCEGnj/mS+vI71pw+RFZXBrT++68cP1ZYBXRA0dEHQ0dGpFsdOEC5dvkoiVXdo3uLWDgu37jN/896hPQg+Nczg9Qf05ttYGT9BKBonFIlQXHxFqLTMrTdPmFpaRlFUTRBSfcx3hct1PHyxrZWLxqt+LHRB0AVBFwQdHZ1qcewE4UPxhZIszM9ydmaDQjLI5fVtxs6e5XRvoUIQEr3LrMyOIu8JgqKy9egJ4xen6WpMkhua4/LkONNXL1Z9n3RB0AVBFwQdHZ1q8c0Igs6npdoyoAuChi4IOjo61UIXBJ1DqbYMvEsgoGK32z/qYv9eBSEyssvS1XNVv9no6Oh8XeiCoHMobzfOdm+QkKpoabubaG1qP9/hw+tyflY5CEciSJKE1WpFUZQPvti/V0EQQtA+8wjbMbjh6OjofD3ogqBzKPsNtIuQ31cOlKTGk8QyreX8dFPdZ5UDb41cccFKkvTBF/v3LAhDyz+Vowrq6OjovA+6IOgcSmVDfXgkRYcSJyB7CKaacX2mSIreGi3KnsPhwOGoHIfwbrhkr9d75IVus9kqBCEWi1Xkq6pakX471LLJZCoLgtvt/sfs1fMhZfcE4WPWK4QgkB1ja/dnAobq33R0dHS+Dv4PFpRCgrJ0+nQAAAAASUVORK5CYII=;labelBorderColor=none;imageBorder=#E6E6E6;strokeWidth=0;perimeterSpacing=0;imageBackground=none;align=left;fontColor=default;" vertex="1" parent="BqEM0KlZmVFwN0colaF9-5">
          <mxGeometry x="20" y="52" width="520" height="206" as="geometry" />
        </mxCell>
      </root>
    </mxGraphModel>
  </diagram>
</mxfile>
